<svg width="249" height="200" viewBox="0 0 249 200" fill="none" xmlns="http://www.w3.org/2000/svg">
<g id="Bitcoin _Isometric (1) 1">
<g id="Group">
<g id="Layer 2">
<path id="Vector" d="M1.74149 129.157L123.871 199.542C124.395 199.842 124.988 200 125.592 200C126.196 200 126.789 199.842 127.313 199.542L246.775 131.718C247.306 131.415 247.747 130.977 248.054 130.449C248.361 129.92 248.522 129.32 248.522 128.709C248.522 128.098 248.361 127.497 248.054 126.969C247.747 126.44 247.306 126.002 246.775 125.699L122.586 54.6378C122.06 54.3337 121.462 54.1735 120.854 54.1735C120.245 54.1735 119.648 54.3337 119.121 54.6378L1.72629 123.154C1.19994 123.459 0.763279 123.898 0.460241 124.425C0.157203 124.953 -0.00152947 125.551 1.1108e-05 126.16C0.00155168 126.768 0.16331 127.366 0.469016 127.892C0.774723 128.418 1.2136 128.854 1.74149 129.157Z" fill="#709FF9"/>
<path id="Vector_2" style="mix-blend-mode:multiply" d="M172.97 110.417L144.093 126.718C144.093 126.718 171.853 143.778 187.743 153.445L212.95 138.132" fill="url(#paint0_linear_1_12589)"/>
<path id="Vector_3" style="mix-blend-mode:multiply" d="M45.5138 126.786L21.0059 140.017C21.0059 140.017 34.9887 147.813 50.8789 157.495L76.086 142.152" fill="url(#paint1_linear_1_12589)"/>
<path id="Vector_4" style="mix-blend-mode:multiply" d="M106.795 95.7958L85.0532 108.715C85.0532 108.715 93.9673 118.799 110.564 125.783L140.422 107.848" fill="url(#paint2_linear_1_12589)"/>
<path id="Vector_5" d="M123.08 112.575C133.313 112.575 141.608 107.717 141.608 101.723C141.608 95.7301 133.313 90.8715 123.08 90.8715C112.848 90.8715 104.553 95.7301 104.553 101.723C104.553 107.717 112.848 112.575 123.08 112.575Z" fill="#FF912E"/>
<path id="Vector_6" d="M104.553 101.731V98.5924L106.567 101.1L104.553 101.731Z" fill="#E0944F"/>
<path id="Vector_7" d="M141.6 98.5924V101.731H139.252L140.969 99.208L141.6 98.5924Z" fill="#E0944F"/>
<path id="Vector_8" d="M123.111 109.573C133.343 109.573 141.638 104.715 141.638 98.7216C141.638 92.7283 133.343 87.8697 123.111 87.8697C112.878 87.8697 104.583 92.7283 104.583 98.7216C104.583 104.715 112.878 109.573 123.111 109.573Z" fill="#FFB92C"/>
<path id="Vector_9" d="M132.473 97.1409C132.601 97.3944 132.651 97.6798 132.618 97.9617L132.542 98.2504H129.16C129.189 98.1564 129.21 98.0597 129.221 97.9617C129.207 97.7421 129.136 97.5299 129.015 97.3461C128.827 97.014 128.54 96.7486 128.195 96.5862C127.703 96.3297 127.161 96.1868 126.606 96.1682C126.089 96.1306 125.569 96.2111 125.087 96.4038C124.615 96.6065 124.433 96.8598 124.539 97.1637C124.699 97.5647 124.946 97.9254 125.261 98.22C125.627 98.5916 125.97 98.9849 126.287 99.3979C126.439 99.576 126.536 99.7935 126.568 100.025C126.601 100.256 126.567 100.492 126.47 100.705C126.098 101.318 125.514 101.773 124.828 101.982C123.692 102.46 122.474 102.718 121.241 102.742C119.912 102.786 118.585 102.598 117.32 102.187L115.375 103.023L113.095 101.913L114.987 101.1C114.648 100.874 114.344 100.6 114.083 100.287C113.888 100.064 113.736 99.8059 113.634 99.5271C113.571 99.3276 113.532 99.1208 113.52 98.9116C113.497 98.7707 113.497 98.6269 113.52 98.486L113.589 98.3264H116.971C116.935 98.4385 116.907 98.5527 116.887 98.6684C116.904 98.9427 116.999 99.2064 117.161 99.4283C117.43 99.8508 117.819 100.184 118.278 100.386C118.89 100.694 119.561 100.868 120.246 100.895C120.863 100.937 121.481 100.838 122.054 100.606C122.521 100.404 122.698 100.15 122.586 99.8463C122.416 99.4415 122.156 99.0804 121.827 98.79C121.454 98.4228 121.109 98.0292 120.793 97.6121C120.646 97.431 120.554 97.2115 120.529 96.9798C120.503 96.748 120.545 96.5138 120.649 96.305C121.051 95.6795 121.662 95.2165 122.374 94.9979C123.466 94.5571 124.631 94.3276 125.809 94.3216C127.054 94.2798 128.297 94.4732 129.471 94.8915L131.409 94.0556L133.53 95.2107L131.584 96.0466C131.97 96.3285 132.276 96.7055 132.473 97.1409Z" fill="#EA8B24"/>
<path id="Vector_10" d="M123.111 107.833C131.698 107.833 138.659 103.754 138.659 98.7216C138.659 93.6894 131.698 89.61 123.111 89.61C114.524 89.61 107.562 93.6894 107.562 98.7216C107.562 103.754 114.524 107.833 123.111 107.833Z" stroke="#F7931E" stroke-width="2.03" stroke-miterlimit="10"/>
<path id="Vector_11" d="M123.08 106.602C133.313 106.602 141.608 101.744 141.608 95.7503C141.608 89.757 133.313 84.8984 123.08 84.8984C112.848 84.8984 104.553 89.757 104.553 95.7503C104.553 101.744 112.848 106.602 123.08 106.602Z" fill="#FF912E"/>
<path id="Vector_12" d="M104.553 95.7503V92.6118L106.567 95.1195L104.553 95.7503Z" fill="#E0944F"/>
<path id="Vector_13" d="M141.6 92.6118V95.7503H139.252L140.969 93.2349L141.6 92.6118Z" fill="#E0944F"/>
<path id="Vector_14" d="M123.08 103.464C133.313 103.464 141.608 98.605 141.608 92.6117C141.608 86.6184 133.313 81.7598 123.08 81.7598C112.848 81.7598 104.553 86.6184 104.553 92.6117C104.553 98.605 112.848 103.464 123.08 103.464Z" fill="#FFB92C"/>
<path id="Vector_15" d="M132.473 91.1603C132.601 91.4137 132.651 91.6992 132.618 91.981L132.542 92.2698H129.16C129.189 92.1757 129.21 92.079 129.221 91.981C129.207 91.7614 129.136 91.5492 129.015 91.3654C128.827 91.0334 128.54 90.7679 128.195 90.6055C127.703 90.349 127.161 90.2062 126.606 90.1875C126.089 90.1499 125.569 90.2305 125.087 90.4231C124.615 90.6258 124.433 90.8791 124.539 91.1831C124.699 91.584 124.946 91.9447 125.261 92.2394C125.627 92.6109 125.97 93.0042 126.287 93.4173C126.439 93.5954 126.536 93.8129 126.568 94.0443C126.601 94.2758 126.567 94.5116 126.47 94.7244C126.098 95.3375 125.514 95.7921 124.828 96.0011C123.692 96.4795 122.474 96.7373 121.241 96.761C119.912 96.805 118.585 96.6173 117.32 96.2062L115.375 97.0422L113.095 95.9327L114.987 95.1195C114.648 94.8931 114.344 94.6193 114.083 94.3064C113.888 94.0828 113.736 93.8252 113.634 93.5465C113.571 93.3469 113.532 93.1401 113.52 92.9309C113.497 92.79 113.497 92.6463 113.52 92.5053L113.589 92.3458H116.971C116.935 92.4578 116.907 92.572 116.887 92.6877C116.904 92.962 116.999 93.2257 117.161 93.4477C117.43 93.8701 117.819 94.2033 118.278 94.4052C118.89 94.7134 119.561 94.887 120.246 94.9143C120.863 94.9561 121.481 94.8574 122.054 94.6256C122.521 94.4229 122.698 94.1696 122.586 93.8656C122.416 93.4608 122.156 93.0997 121.827 92.8093C121.454 92.4422 121.109 92.0485 120.793 91.6314C120.646 91.4503 120.554 91.2308 120.529 90.9991C120.503 90.7673 120.545 90.5331 120.649 90.3243C121.051 89.6988 121.662 89.2358 122.374 89.0172C123.466 88.5764 124.631 88.3469 125.809 88.3409C127.054 88.2992 128.297 88.4925 129.471 88.9109L131.409 88.0749L133.53 89.23L131.584 90.066C131.97 90.3478 132.276 90.7248 132.473 91.1603Z" fill="#EA8B24"/>
<path id="Vector_16" d="M123.111 101.86C131.698 101.86 138.659 97.7807 138.659 92.7485C138.659 87.7163 131.698 83.6369 123.111 83.6369C114.524 83.6369 107.562 87.7163 107.562 92.7485C107.562 97.7807 114.524 101.86 123.111 101.86Z" stroke="#F7931E" stroke-width="2.03" stroke-miterlimit="10"/>
<path id="Vector_17" d="M123.08 100.599C133.313 100.599 141.608 95.7401 141.608 89.7467C141.608 83.7534 133.313 78.8949 123.08 78.8949C112.848 78.8949 104.553 83.7534 104.553 89.7467C104.553 95.7401 112.848 100.599 123.08 100.599Z" fill="#FF912E"/>
<path id="Vector_18" d="M104.553 89.7467V86.6082L106.567 89.116L104.553 89.7467Z" fill="#E0944F"/>
<path id="Vector_19" d="M141.6 86.6082V89.7467H139.252L140.969 87.2314L141.6 86.6082Z" fill="#E0944F"/>
<path id="Vector_20" d="M123.08 97.4677C133.313 97.4677 141.608 92.6092 141.608 86.6159C141.608 80.6225 133.313 75.764 123.08 75.764C112.848 75.764 104.553 80.6225 104.553 86.6159C104.553 92.6092 112.848 97.4677 123.08 97.4677Z" fill="#FFB92C"/>
<path id="Vector_21" d="M132.473 85.1568C132.601 85.4102 132.651 85.6957 132.618 85.9775L132.542 86.2663H129.16C129.189 86.1723 129.21 86.0755 129.221 85.9775C129.207 85.758 129.136 85.5458 129.015 85.362C128.827 85.0299 128.54 84.7644 128.195 84.6021C127.703 84.3455 127.161 84.2027 126.606 84.1841C126.089 84.1465 125.569 84.227 125.087 84.4197C124.615 84.6223 124.433 84.8756 124.539 85.1796C124.699 85.5805 124.946 85.9412 125.261 86.2359C125.627 86.6074 125.97 87.0008 126.287 87.4138C126.439 87.5919 126.536 87.8094 126.568 88.0409C126.601 88.2723 126.567 88.5082 126.47 88.7209C126.098 89.3341 125.514 89.7887 124.828 89.9976C123.692 90.476 122.474 90.7339 121.241 90.7575C119.912 90.8016 118.585 90.6139 117.32 90.2028L115.375 91.0387L113.095 89.9292L114.987 89.1161C114.648 88.8896 114.344 88.6158 114.083 88.3029C113.888 88.0794 113.736 87.8218 113.634 87.543C113.571 87.3434 113.532 87.1366 113.52 86.9275C113.497 86.7865 113.497 86.6428 113.52 86.5019L113.589 86.3423H116.971C116.935 86.4544 116.907 86.5686 116.887 86.6843C116.904 86.9585 116.999 87.2223 117.161 87.4442C117.43 87.8667 117.819 88.1999 118.278 88.4017C118.89 88.71 119.561 88.8836 120.246 88.9109C120.863 88.9526 121.481 88.8539 122.054 88.6221C122.521 88.4195 122.698 88.1662 122.586 87.8622C122.416 87.4574 122.156 87.0963 121.827 86.8059C121.454 86.4387 121.109 86.045 120.793 85.628C120.646 85.4469 120.554 85.2274 120.529 84.9956C120.503 84.7639 120.545 84.5297 120.649 84.3209C121.051 83.6953 121.662 83.2324 122.374 83.0138C123.466 82.573 124.631 82.3435 125.809 82.3374C127.054 82.2957 128.297 82.4891 129.471 82.9074L131.409 82.0715L133.53 83.2266L131.584 84.0625C131.97 84.3443 132.276 84.7214 132.473 85.1568Z" fill="#EA8B24"/>
<path id="Vector_22" d="M123.111 95.8567C131.698 95.8567 138.659 91.7773 138.659 86.7451C138.659 81.7129 131.698 77.6335 123.111 77.6335C114.524 77.6335 107.562 81.7129 107.562 86.7451C107.562 91.7773 114.524 95.8567 123.111 95.8567Z" stroke="#F7931E" stroke-width="2.03" stroke-miterlimit="10"/>
<path id="Vector_23" d="M123.08 96.1606C133.313 96.1606 141.608 91.3021 141.608 85.3087C141.608 79.3154 133.313 74.4568 123.08 74.4568C112.848 74.4568 104.553 79.3154 104.553 85.3087C104.553 91.3021 112.848 96.1606 123.08 96.1606Z" fill="#FF912E"/>
<path id="Vector_24" d="M104.553 85.3088V82.1779L106.567 84.678L104.553 85.3088Z" fill="#E0944F"/>
<path id="Vector_25" d="M141.6 82.1779V85.3088H139.252L140.969 82.7934L141.6 82.1779Z" fill="#E0944F"/>
<path id="Vector_26" d="M123.08 93.0297C133.313 93.0297 141.608 88.1711 141.608 82.1778C141.608 76.1845 133.313 71.3259 123.08 71.3259C112.848 71.3259 104.553 76.1845 104.553 82.1778C104.553 88.1711 112.848 93.0297 123.08 93.0297Z" fill="#FFB92C"/>
<path id="Vector_27" d="M132.473 80.7264C132.601 80.9798 132.651 81.2653 132.618 81.5471L132.542 81.8359H129.16C129.189 81.7418 129.21 81.6451 129.221 81.5471C129.207 81.3275 129.136 81.1153 129.015 80.9315C128.827 80.5995 128.54 80.334 128.195 80.1716C127.703 79.9151 127.161 79.7723 126.606 79.7536C126.089 79.716 125.569 79.7966 125.087 79.9892C124.615 80.1919 124.433 80.4452 124.539 80.7492C124.699 81.1501 124.946 81.5108 125.261 81.8055C125.627 82.177 125.97 82.5703 126.287 82.9834C126.439 83.1615 126.536 83.3789 126.568 83.6104C126.601 83.8419 126.567 84.0777 126.47 84.2905C126.098 84.9036 125.514 85.3582 124.828 85.5671C123.692 86.0455 122.474 86.3034 121.241 86.3271C119.912 86.3711 118.585 86.1834 117.32 85.7723L115.375 86.6083L113.095 85.4988L114.987 84.6856C114.648 84.4592 114.344 84.1854 114.083 83.8725C113.888 83.6489 113.736 83.3913 113.634 83.1126C113.571 82.913 113.532 82.7062 113.52 82.497C113.497 82.3561 113.497 82.2124 113.52 82.0714L113.589 81.9119H116.971C116.935 82.0239 116.907 82.1381 116.887 82.2538C116.904 82.5281 116.999 82.7918 117.161 83.0138C117.43 83.4362 117.819 83.7694 118.278 83.9713C118.89 84.2795 119.561 84.4531 120.246 84.4804C120.863 84.5222 121.481 84.4235 122.054 84.1917C122.521 83.989 122.698 83.7357 122.586 83.4317C122.416 83.0269 122.156 82.6658 121.827 82.3754C121.454 82.0083 121.109 81.6146 120.793 81.1975C120.646 81.0164 120.554 80.7969 120.529 80.5652C120.503 80.3334 120.545 80.0992 120.649 79.8904C121.051 79.2649 121.662 78.8019 122.374 78.5833C123.466 78.1425 124.631 77.913 125.809 77.907C127.054 77.8653 128.297 78.0586 129.471 78.4769L131.409 77.641L133.53 78.7961L131.584 79.6321C131.97 79.9139 132.276 80.2909 132.473 80.7264Z" fill="#EA8B24"/>
<path id="Vector_28" d="M123.111 91.4187C131.698 91.4187 138.659 87.3392 138.659 82.307C138.659 77.2748 131.698 73.1954 123.111 73.1954C114.524 73.1954 107.562 77.2748 107.562 82.307C107.562 87.3392 114.524 91.4187 123.111 91.4187Z" stroke="#F7931E" stroke-width="2.03" stroke-miterlimit="10"/>
<path id="Vector_29" d="M126.082 90.1572C136.314 90.1572 144.609 85.2986 144.609 79.3053C144.609 73.312 136.314 68.4534 126.082 68.4534C115.85 68.4534 107.555 73.312 107.555 79.3053C107.555 85.2986 115.85 90.1572 126.082 90.1572Z" fill="#FF912E"/>
<path id="Vector_30" d="M107.562 79.3053V76.1743L109.576 78.6821L107.562 79.3053Z" fill="#E0944F"/>
<path id="Vector_31" d="M144.609 76.1743V79.3053H142.254L143.979 76.7899L144.609 76.1743Z" fill="#E0944F"/>
<path id="Vector_32" d="M126.082 87.0263C136.314 87.0263 144.609 82.1677 144.609 76.1744C144.609 70.181 136.314 65.3225 126.082 65.3225C115.85 65.3225 107.555 70.181 107.555 76.1744C107.555 82.1677 115.85 87.0263 126.082 87.0263Z" fill="#FFB92C"/>
<path id="Vector_33" d="M135.483 74.7229C135.61 74.9763 135.661 75.2618 135.627 75.5436L135.551 75.8324H132.169C132.199 75.7384 132.219 75.6416 132.23 75.5436C132.216 75.3241 132.146 75.1119 132.025 74.9281C131.836 74.596 131.55 74.3305 131.204 74.1682C130.713 73.9116 130.17 73.7688 129.616 73.7502C129.098 73.7126 128.578 73.7931 128.096 73.9858C127.625 74.1884 127.442 74.4417 127.549 74.7457C127.709 75.1466 127.955 75.5073 128.271 75.802C128.636 76.1735 128.979 76.5669 129.297 76.9799C129.448 77.158 129.546 77.3755 129.578 77.607C129.61 77.8384 129.576 78.0743 129.479 78.287C129.108 78.9002 128.523 79.3548 127.838 79.5637C126.701 80.0421 125.484 80.3 124.251 80.3236C122.94 80.3845 121.63 80.22 120.375 79.8373L118.43 80.6732L116.15 79.5637L118.042 78.7506C117.703 78.5241 117.399 78.2503 117.138 77.9374C116.943 77.7139 116.791 77.4563 116.689 77.1775C116.626 76.9779 116.587 76.7711 116.575 76.562C116.552 76.421 116.552 76.2773 116.575 76.1364L116.644 75.9768H120.025C119.99 76.0888 119.962 76.2031 119.942 76.3188C119.958 76.593 120.053 76.8568 120.215 77.0787C120.485 77.5012 120.874 77.8343 121.333 78.0362C121.945 78.3444 122.616 78.5181 123.301 78.5454C123.918 78.5871 124.536 78.4884 125.109 78.2566C125.576 78.054 125.753 77.8006 125.641 77.4967C125.471 77.0919 125.211 76.7308 124.881 76.4404C124.509 76.0732 124.164 75.6795 123.848 75.2625C123.701 75.0814 123.609 74.8619 123.584 74.6301C123.558 74.3984 123.6 74.1642 123.704 73.9554C124.106 73.3298 124.717 72.8669 125.429 72.6483C126.52 72.2075 127.686 71.9779 128.863 71.9719C130.109 71.9302 131.352 72.1236 132.526 72.5419L134.464 71.706L136.584 72.8611L134.639 73.697C134.999 73.9654 135.289 74.3175 135.483 74.7229Z" fill="#EA8B24"/>
<path id="Vector_34" d="M126.12 85.4151C134.707 85.4151 141.668 81.3357 141.668 76.3035C141.668 71.2713 134.707 67.1919 126.12 67.1919C117.533 67.1919 110.572 71.2713 110.572 76.3035C110.572 81.3357 117.533 85.4151 126.12 85.4151Z" stroke="#F7931E" stroke-width="3.045" stroke-miterlimit="10"/>
<path id="Vector_35" d="M132.648 83.7433C142.88 83.7433 151.175 78.8847 151.175 72.8914C151.175 66.8981 142.88 62.0395 132.648 62.0395C122.416 62.0395 114.121 66.8981 114.121 72.8914C114.121 78.8847 122.416 83.7433 132.648 83.7433Z" fill="#FF912E"/>
<path id="Vector_36" d="M114.121 72.8914V69.7529L116.142 72.2606L114.121 72.8914Z" fill="#E0944F"/>
<path id="Vector_37" d="M151.168 69.7529V72.8914H148.819L150.545 70.376L151.168 69.7529Z" fill="#E0944F"/>
<path id="Vector_38" d="M132.648 80.6048C142.88 80.6048 151.175 75.7462 151.175 69.7529C151.175 63.7596 142.88 58.901 132.648 58.901C122.416 58.901 114.121 63.7596 114.121 69.7529C114.121 75.7462 122.416 80.6048 132.648 80.6048Z" fill="#FFB92C"/>
<path id="Vector_39" d="M142.041 68.309C142.168 68.5625 142.219 68.8479 142.185 69.1298L142.109 69.4185H138.727C138.757 69.3245 138.777 69.2278 138.788 69.1298C138.775 68.9102 138.704 68.698 138.583 68.5142C138.395 68.1821 138.108 67.9167 137.762 67.7543C137.271 67.4978 136.728 67.3549 136.174 67.3363C135.656 67.2987 135.136 67.3792 134.654 67.5719C134.183 67.7745 134.001 68.0279 134.107 68.3318C134.267 68.7328 134.513 69.0934 134.829 69.3881C135.194 69.7596 135.537 70.153 135.855 70.566C136.006 70.7441 136.104 70.9616 136.136 71.1931C136.168 71.4245 136.134 71.6604 136.037 71.8731C135.666 72.4863 135.081 72.9409 134.396 73.1498C133.259 73.6282 132.042 73.8861 130.809 73.9098C129.479 73.9538 128.153 73.7661 126.888 73.355L124.942 74.1909L122.662 73.0814L124.555 72.2683C124.216 72.0419 123.911 71.768 123.65 71.4552C123.455 71.2316 123.303 70.974 123.202 70.6952C123.138 70.4957 123.1 70.2889 123.088 70.0797C123.065 69.9388 123.065 69.795 123.088 69.6541L123.156 69.4945H126.538C126.503 69.6066 126.475 69.7208 126.454 69.8365C126.471 70.1108 126.566 70.3745 126.728 70.5964C126.998 71.0189 127.386 71.3521 127.845 71.554C128.457 71.8622 129.128 72.0358 129.813 72.0631C130.43 72.1049 131.049 72.0061 131.622 71.7743C132.088 71.5717 132.265 71.3184 132.154 71.0144C131.983 70.6096 131.724 70.2485 131.394 69.9581C131.022 69.5909 130.676 69.1973 130.361 68.7802C130.214 68.5991 130.122 68.3796 130.096 68.1479C130.071 67.9161 130.112 67.6819 130.216 67.4731C130.619 66.8476 131.23 66.3846 131.941 66.166C133.033 65.7252 134.199 65.4957 135.376 65.4897C136.622 65.4479 137.865 65.6413 139.039 66.0596L140.977 65.2237L143.097 66.3788L141.152 67.2147C141.538 67.4966 141.844 67.8736 142.041 68.309Z" fill="#EA8B24"/>
<path id="Vector_40" d="M132.678 79.0013C141.265 79.0013 148.227 74.9219 148.227 69.8897C148.227 64.8575 141.265 60.7781 132.678 60.7781C124.091 60.7781 117.13 64.8575 117.13 69.8897C117.13 74.9219 124.091 79.0013 132.678 79.0013Z" stroke="#F7931E" stroke-width="2.03" stroke-miterlimit="10"/>
<path id="Vector_41" d="M123.658 74.6088C133.89 74.6088 142.185 69.7503 142.185 63.757C142.185 57.7636 133.89 52.9051 123.658 52.9051C113.426 52.9051 105.131 57.7636 105.131 63.757C105.131 69.7503 113.426 74.6088 123.658 74.6088Z" fill="#FF912E"/>
<path id="Vector_42" d="M105.131 63.757V60.6261L107.152 63.1339L105.131 63.757Z" fill="#E0944F"/>
<path id="Vector_43" d="M142.178 60.6261V63.757H139.829L141.554 61.2416L142.178 60.6261Z" fill="#E0944F"/>
<path id="Vector_44" d="M123.658 71.4779C133.89 71.4779 142.185 66.6194 142.185 60.626C142.185 54.6327 133.89 49.7742 123.658 49.7742C113.426 49.7742 105.131 54.6327 105.131 60.626C105.131 66.6194 113.426 71.4779 123.658 71.4779Z" fill="#FFD64C"/>
<path id="Vector_45" d="M133.051 59.1746C133.178 59.428 133.229 59.7135 133.195 59.9953L133.119 60.2841H129.737C129.767 60.19 129.787 60.0933 129.798 59.9953C129.785 59.7758 129.714 59.5636 129.593 59.3798C129.405 59.0477 129.118 58.7822 128.772 58.6198C128.281 58.3633 127.738 58.2205 127.184 58.2019C126.666 58.1642 126.146 58.2448 125.664 58.4374C125.193 58.6401 125.011 58.8934 125.117 59.1974C125.277 59.5983 125.523 59.959 125.839 60.2537C126.204 60.6252 126.547 61.0186 126.865 61.4316C127.016 61.6097 127.114 61.8272 127.146 62.0586C127.178 62.2901 127.144 62.526 127.047 62.7387C126.676 63.3519 126.091 63.8065 125.406 64.0154C124.269 64.4938 123.052 64.7517 121.819 64.7753C120.489 64.8194 119.163 64.6316 117.898 64.2206L115.952 65.0565L113.672 63.947L115.565 63.1338C115.239 62.9168 114.945 62.656 114.691 62.3587C114.496 62.1352 114.344 61.8775 114.242 61.5988C114.179 61.3992 114.14 61.1924 114.128 60.9832C114.105 60.8423 114.105 60.6986 114.128 60.5577L114.197 60.3981H117.578C117.543 60.5101 117.515 60.6244 117.495 60.7401C117.511 61.0143 117.606 61.2781 117.768 61.5C118.038 61.9225 118.427 62.2556 118.886 62.4575C119.498 62.7657 120.169 62.9393 120.854 62.9667C121.471 63.0084 122.089 62.9097 122.662 62.6779C123.128 62.4752 123.306 62.2219 123.194 61.918C123.024 61.5131 122.764 61.1521 122.434 60.8616C122.062 60.4945 121.717 60.1008 121.401 59.6837C121.254 59.5026 121.162 59.2831 121.137 59.0514C121.111 58.8197 121.153 58.5854 121.257 58.3767C121.663 57.7325 122.29 57.2574 123.02 57.0392C124.111 56.5983 125.277 56.3688 126.454 56.3628C127.7 56.3211 128.943 56.5144 130.117 56.9328L132.055 56.0968L134.175 57.2519L132.23 58.0879C132.59 58.3761 132.872 58.7496 133.051 59.1746Z" fill="#EA8B24"/>
<path id="Vector_46" d="M123.688 69.8669C132.275 69.8669 139.237 65.7875 139.237 60.7553C139.237 55.7231 132.275 51.6436 123.688 51.6436C115.101 51.6436 108.14 55.7231 108.14 60.7553C108.14 65.7875 115.101 69.8669 123.688 69.8669Z" stroke="#F7931E" stroke-width="2.03" stroke-miterlimit="10"/>
<path id="Vector_47" d="M182.371 58.2094C182.31 57.9152 182.186 57.6379 182.006 57.3975C181.826 57.1571 181.595 56.9595 181.329 56.8188C181.089 56.6858 180.807 56.6503 180.541 56.7196C180.275 56.7889 180.046 56.9577 179.901 57.1911C179.782 57.4256 179.745 57.693 179.794 57.9511C179.708 58.3288 179.719 58.7224 179.826 59.0947C179.934 59.4671 180.135 59.8058 180.41 60.0789C180.608 60.2733 180.874 60.3823 181.151 60.3823C181.428 60.3823 181.694 60.2733 181.892 60.0789C182.113 59.8267 182.271 59.5261 182.354 59.2013C182.438 58.8765 182.443 58.5367 182.371 58.2094Z" fill="#5A2500"/>
<path id="Vector_48" d="M214.972 24.0276L175.182 0.530357C174.599 0.232197 173.961 0.0555509 173.308 0.0111361C172.655 -0.0332787 172 0.0554635 171.382 0.271979H171.321C171.029 0.369898 170.747 0.494549 170.478 0.644347L166.731 2.3238L168.745 3.21293L169.984 105.044C169.983 106.838 170.453 108.6 171.347 110.154C172.24 111.709 173.526 113.003 175.075 113.905L212.168 135.518L211.59 138.998L216.621 136.338C217.108 136.071 217.515 135.678 217.797 135.199C218.079 134.72 218.227 134.174 218.224 133.618V29.6815C218.22 28.5378 217.917 27.4151 217.347 26.4238C216.777 25.4325 215.958 24.6066 214.972 24.0276Z" fill="#1EC3F6"/>
<path id="Vector_49" opacity="0.33" d="M214.972 24.0276L175.182 0.530357C174.599 0.232197 173.961 0.0555509 173.308 0.0111361C172.655 -0.0332787 172 0.0554635 171.382 0.271979H171.321C171.029 0.369898 170.747 0.494549 170.478 0.644347L166.731 2.3238L168.745 3.21293L169.984 105.044C169.983 106.838 170.453 108.6 171.347 110.154C172.24 111.709 173.526 113.003 175.075 113.905L212.168 135.518L211.59 138.998L216.621 136.338C217.108 136.071 217.515 135.678 217.797 135.199C218.079 134.72 218.227 134.174 218.224 133.618V29.6815C218.22 28.5378 217.917 27.4151 217.347 26.4238C216.777 25.4325 215.958 24.6066 214.972 24.0276Z" fill="#3F3D56"/>
<path id="Vector_50" d="M208.702 138.816L170.242 116.405C168.692 115.503 167.407 114.209 166.513 112.655C165.62 111.1 165.15 109.338 165.15 107.544V4.77839C165.149 4.29701 165.275 3.82377 165.516 3.40699C165.756 2.99022 166.104 2.64482 166.522 2.40607C166.94 2.16731 167.414 2.04375 167.895 2.04799C168.376 2.05223 168.848 2.18412 169.262 2.43019L210.146 26.5809C211.133 27.1639 211.951 27.9941 212.518 28.9897C213.086 29.9852 213.384 31.1116 213.384 32.2577V136.126C213.383 136.673 213.238 137.211 212.964 137.684C212.689 138.158 212.295 138.551 211.82 138.823C211.346 139.096 210.808 139.239 210.26 139.238C209.713 139.236 209.176 139.091 208.702 138.816Z" fill="#F4F4F4"/>
<path id="Vector_51" d="M210.952 38.5271L167.134 13.4037V103.312L210.952 128.64V38.5271Z" fill="#054F70"/>
<path id="Vector_52" d="M185.6 122.349C186.686 122.09 187.283 120.692 186.933 119.226C186.583 117.76 185.419 116.783 184.333 117.042C183.247 117.301 182.651 118.699 183 120.165C183.35 121.63 184.514 122.608 185.6 122.349Z" fill="#BABABC"/>
<path id="Vector_53" d="M183.32 17.7277C183.32 17.9005 183.366 18.0703 183.453 18.2197C183.54 18.3692 183.664 18.4931 183.814 18.5788L192.28 23.4424C192.429 23.5276 192.598 23.5722 192.77 23.5716C192.941 23.571 193.11 23.5253 193.258 23.4392C193.407 23.353 193.53 23.2293 193.616 23.0805C193.702 22.9317 193.747 22.763 193.747 22.5913V22.3861C193.747 22.2105 193.699 22.0381 193.61 21.8871C193.52 21.736 193.392 21.6118 193.238 21.5274L184.772 16.869C184.623 16.7872 184.455 16.7457 184.285 16.7485C184.115 16.7513 183.948 16.7983 183.802 16.8849C183.655 16.9716 183.534 17.0948 183.449 17.2426C183.365 17.3904 183.321 17.5576 183.32 17.7277Z" fill="#CCCCCC"/>
<path id="Vector_54" d="M180.42 15.8071C180.917 15.622 181.115 14.9219 180.863 14.2433C180.61 13.5647 180.002 13.1647 179.505 13.3498C179.008 13.5348 178.81 14.235 179.062 14.9136C179.315 15.5921 179.923 15.9922 180.42 15.8071Z" fill="#CCCCCC"/>
<path id="Vector_55" style="mix-blend-mode:multiply" d="M111.575 149.295L89.8333 162.214C89.8333 162.214 98.7473 172.299 115.344 179.282L145.202 161.348" fill="url(#paint3_linear_1_12589)"/>
<path id="Vector_56" d="M129.791 166.288C140.023 166.288 148.318 161.429 148.318 155.436C148.318 149.442 140.023 144.584 129.791 144.584C119.558 144.584 111.263 149.442 111.263 155.436C111.263 161.429 119.558 166.288 129.791 166.288Z" fill="#FF912E"/>
<path id="Vector_57" d="M111.263 155.443V152.305L113.277 154.812L111.263 155.443Z" fill="#E0944F"/>
<path id="Vector_58" d="M148.31 152.305V155.443H145.962L147.687 152.92L148.31 152.305Z" fill="#E0944F"/>
<path id="Vector_59" d="M129.791 163.157C140.023 163.157 148.318 158.298 148.318 152.305C148.318 146.311 140.023 141.453 129.791 141.453C119.558 141.453 111.263 146.311 111.263 152.305C111.263 158.298 119.558 163.157 129.791 163.157Z" fill="#FFB92C"/>
<path id="Vector_60" d="M139.183 150.853C139.311 151.107 139.361 151.392 139.328 151.674L139.252 151.963H135.87C135.9 151.869 135.92 151.772 135.931 151.674C135.917 151.454 135.847 151.242 135.726 151.058C135.537 150.726 135.251 150.461 134.905 150.298C134.414 150.042 133.871 149.899 133.317 149.88C132.799 149.843 132.279 149.923 131.797 150.116C131.326 150.319 131.143 150.572 131.25 150.876C131.41 151.277 131.656 151.638 131.972 151.932C132.337 152.304 132.68 152.697 132.998 153.11C133.149 153.288 133.246 153.506 133.279 153.737C133.311 153.969 133.277 154.205 133.18 154.417C132.809 155.03 132.224 155.485 131.538 155.694C130.402 156.172 129.185 156.43 127.952 156.454C126.622 156.498 125.295 156.31 124.03 155.899L122.085 156.735L119.805 155.626L121.697 154.812C121.359 154.586 121.054 154.312 120.793 153.999C120.598 153.776 120.446 153.518 120.345 153.239C120.281 153.04 120.243 152.833 120.231 152.624C120.208 152.483 120.208 152.339 120.231 152.198L120.299 152.039H123.681C123.645 152.151 123.618 152.265 123.597 152.381C123.614 152.655 123.709 152.919 123.871 153.141C124.14 153.563 124.529 153.896 124.988 154.098C125.6 154.406 126.271 154.58 126.956 154.607C127.573 154.649 128.191 154.55 128.765 154.319C129.231 154.116 129.408 153.863 129.297 153.559C129.126 153.154 128.866 152.793 128.537 152.502C128.164 152.135 127.819 151.741 127.503 151.324C127.356 151.143 127.265 150.924 127.239 150.692C127.213 150.46 127.255 150.226 127.359 150.017C127.762 149.392 128.373 148.929 129.084 148.71C130.176 148.269 131.341 148.04 132.519 148.034C133.765 147.992 135.007 148.185 136.182 148.604L138.12 147.768L140.24 148.923L138.294 149.759C138.68 150.041 138.987 150.418 139.183 150.853Z" fill="#EA8B24"/>
<path id="Vector_61" d="M129.821 161.546C138.408 161.546 145.369 157.466 145.369 152.434C145.369 147.402 138.408 143.322 129.821 143.322C121.234 143.322 114.273 147.402 114.273 152.434C114.273 157.466 121.234 161.546 129.821 161.546Z" stroke="#F7931E" stroke-width="2.03" stroke-miterlimit="10"/>
<path id="Vector_62" d="M132.792 160.292C143.025 160.292 151.32 155.433 151.32 149.44C151.32 143.446 143.025 138.588 132.792 138.588C122.56 138.588 114.265 143.446 114.265 149.44C114.265 155.433 122.56 160.292 132.792 160.292Z" fill="#FF912E"/>
<path id="Vector_63" d="M114.273 149.44V146.301L116.287 148.809L114.273 149.44Z" fill="#E0944F"/>
<path id="Vector_64" d="M151.32 146.301V149.44H148.971L150.689 146.924L151.32 146.301Z" fill="#E0944F"/>
<path id="Vector_65" d="M132.792 157.153C143.025 157.153 151.32 152.295 151.32 146.301C151.32 140.308 143.025 135.449 132.792 135.449C122.56 135.449 114.265 140.308 114.265 146.301C114.265 152.295 122.56 157.153 132.792 157.153Z" fill="#FFB92C"/>
<path id="Vector_66" d="M142.193 144.85C142.321 145.103 142.371 145.389 142.337 145.671L142.261 145.959H138.879C138.909 145.865 138.929 145.769 138.94 145.671C138.927 145.451 138.856 145.239 138.735 145.055C138.547 144.723 138.26 144.457 137.914 144.295C137.423 144.039 136.88 143.896 136.326 143.877C135.808 143.839 135.288 143.92 134.806 144.113C134.335 144.315 134.153 144.569 134.259 144.873C134.419 145.274 134.666 145.634 134.981 145.929C135.347 146.3 135.689 146.694 136.007 147.107C136.158 147.285 136.256 147.502 136.288 147.734C136.32 147.965 136.286 148.201 136.189 148.414C135.818 149.027 135.234 149.482 134.548 149.691C133.411 150.169 132.194 150.427 130.961 150.45C129.632 150.495 128.305 150.307 127.04 149.896L125.094 150.732L122.814 149.622L124.707 148.809C124.368 148.583 124.063 148.309 123.802 147.996C123.607 147.772 123.455 147.515 123.354 147.236C123.29 147.036 123.252 146.83 123.24 146.62C123.217 146.479 123.217 146.336 123.24 146.195L123.308 146.035H126.69C126.655 146.147 126.627 146.262 126.607 146.377C126.623 146.652 126.718 146.915 126.88 147.137C127.15 147.56 127.538 147.893 127.997 148.095C128.609 148.403 129.281 148.577 129.965 148.604C130.582 148.646 131.201 148.547 131.774 148.315C132.24 148.112 132.417 147.859 132.306 147.555C132.135 147.15 131.876 146.789 131.546 146.499C131.174 146.132 130.828 145.738 130.513 145.321C130.366 145.14 130.274 144.92 130.248 144.689C130.223 144.457 130.264 144.223 130.368 144.014C130.771 143.388 131.382 142.925 132.093 142.707C133.185 142.266 134.351 142.036 135.528 142.03C136.774 141.989 138.017 142.182 139.191 142.6L141.129 141.764L143.249 142.92L141.304 143.755C141.69 144.037 141.996 144.414 142.193 144.85Z" fill="#EA8B24"/>
<path id="Vector_67" d="M132.83 155.55C141.417 155.55 148.379 151.47 148.379 146.438C148.379 141.406 141.417 137.326 132.83 137.326C124.243 137.326 117.282 141.406 117.282 146.438C117.282 151.47 124.243 155.55 132.83 155.55Z" stroke="#F7931E" stroke-width="3.045" stroke-miterlimit="10"/>
<path id="Vector_68" d="M139.358 153.87C149.59 153.87 157.885 149.012 157.885 143.018C157.885 137.025 149.59 132.166 139.358 132.166C129.126 132.166 120.831 137.025 120.831 143.018C120.831 149.012 129.126 153.87 139.358 153.87Z" fill="#FF912E"/>
<path id="Vector_69" d="M120.831 143.018V139.887L122.852 142.388L120.831 143.018Z" fill="#E0944F"/>
<path id="Vector_70" d="M157.878 139.887V143.018H155.53L157.255 140.503L157.878 139.887Z" fill="#E0944F"/>
<path id="Vector_71" d="M139.358 150.739C149.59 150.739 157.885 145.881 157.885 139.887C157.885 133.894 149.59 129.035 139.358 129.035C129.126 129.035 120.831 133.894 120.831 139.887C120.831 145.881 129.126 150.739 139.358 150.739Z" fill="#FFB92C"/>
<path id="Vector_72" d="M148.751 138.436C148.879 138.689 148.929 138.975 148.895 139.257L148.819 139.545H145.438C145.467 139.451 145.488 139.355 145.499 139.257C145.485 139.037 145.414 138.825 145.293 138.641C145.105 138.309 144.818 138.044 144.473 137.881C143.981 137.625 143.438 137.482 142.884 137.463C142.366 137.426 141.847 137.506 141.364 137.699C140.893 137.901 140.711 138.155 140.817 138.459C140.977 138.86 141.224 139.22 141.539 139.515C141.905 139.886 142.247 140.28 142.565 140.693C142.716 140.871 142.814 141.088 142.846 141.32C142.879 141.551 142.844 141.787 142.748 142C142.376 142.613 141.792 143.068 141.106 143.277C139.969 143.755 138.752 144.013 137.519 144.037C136.19 144.081 134.863 143.893 133.598 143.482L131.652 144.318L129.373 143.208L131.265 142.395C130.926 142.169 130.622 141.895 130.361 141.582C130.166 141.358 130.014 141.101 129.912 140.822C129.848 140.623 129.81 140.416 129.798 140.207C129.775 140.066 129.775 139.922 129.798 139.781L129.867 139.621H133.294C133.259 139.733 133.231 139.848 133.21 139.963C133.227 140.238 133.322 140.501 133.484 140.723C133.754 141.146 134.142 141.479 134.601 141.681C135.213 141.989 135.884 142.163 136.569 142.19C137.186 142.232 137.805 142.133 138.378 141.901C138.844 141.699 139.021 141.445 138.91 141.141C138.739 140.736 138.48 140.375 138.15 140.085C137.777 139.718 137.432 139.324 137.116 138.907C136.97 138.726 136.878 138.506 136.852 138.275C136.827 138.043 136.868 137.809 136.972 137.6C137.375 136.974 137.986 136.511 138.697 136.293C139.789 135.852 140.955 135.623 142.132 135.617C143.378 135.575 144.621 135.768 145.795 136.186L147.733 135.351L149.853 136.506L147.908 137.342C148.277 137.629 148.567 138.006 148.751 138.436Z" fill="#EA8B24"/>
<path id="Vector_73" d="M139.389 149.128C147.976 149.128 154.937 145.049 154.937 140.017C154.937 134.984 147.976 130.905 139.389 130.905C130.802 130.905 123.84 134.984 123.84 140.017C123.84 145.049 130.802 149.128 139.389 149.128Z" stroke="#F7931E" stroke-width="2.03" stroke-miterlimit="10"/>
<path id="Vector_74" d="M142.968 147.965C153.2 147.965 161.495 143.107 161.495 137.114C161.495 131.12 153.2 126.262 142.968 126.262C132.736 126.262 124.441 131.12 124.441 137.114C124.441 143.107 132.736 147.965 142.968 147.965Z" fill="#FF912E"/>
<path id="Vector_75" d="M124.448 137.114V133.975L126.462 136.483L124.448 137.114Z" fill="#E0944F"/>
<path id="Vector_76" d="M161.495 133.975V137.114H159.147L160.864 134.598L161.495 133.975Z" fill="#E0944F"/>
<path id="Vector_77" d="M142.968 144.827C153.2 144.827 161.495 139.968 161.495 133.975C161.495 127.982 153.2 123.123 142.968 123.123C132.736 123.123 124.441 127.982 124.441 133.975C124.441 139.968 132.736 144.827 142.968 144.827Z" fill="#FFD64C"/>
<path id="Vector_78" d="M152.368 132.531C152.496 132.785 152.546 133.07 152.513 133.352L152.437 133.641H149.055C149.085 133.547 149.105 133.45 149.116 133.352C149.102 133.132 149.032 132.92 148.911 132.736C148.722 132.404 148.435 132.139 148.09 131.976C147.598 131.72 147.056 131.577 146.502 131.558C145.984 131.521 145.464 131.601 144.982 131.794C144.511 131.997 144.328 132.25 144.435 132.554C144.595 132.955 144.841 133.316 145.157 133.61C145.522 133.982 145.865 134.375 146.182 134.788C146.334 134.966 146.431 135.184 146.464 135.415C146.496 135.647 146.462 135.883 146.365 136.095C145.994 136.708 145.409 137.163 144.723 137.372C143.587 137.85 142.369 138.108 141.136 138.132C139.807 138.176 138.48 137.988 137.215 137.577L135.27 138.413L132.99 137.304L134.882 136.49C134.543 136.264 134.239 135.99 133.978 135.677C133.783 135.454 133.631 135.196 133.53 134.917C133.466 134.718 133.427 134.511 133.416 134.302C133.393 134.161 133.393 134.017 133.416 133.876L133.484 133.717H136.866C136.83 133.829 136.802 133.943 136.782 134.059C136.799 134.333 136.894 134.597 137.056 134.819C137.325 135.241 137.714 135.574 138.173 135.776C138.785 136.084 139.456 136.258 140.141 136.285C140.758 136.327 141.376 136.228 141.95 135.996C142.416 135.794 142.593 135.54 142.482 135.237C142.311 134.832 142.051 134.471 141.722 134.18C141.349 133.813 141.004 133.419 140.688 133.002C140.541 132.821 140.45 132.602 140.424 132.37C140.398 132.138 140.44 131.904 140.544 131.695C140.947 131.07 141.558 130.607 142.269 130.388C143.361 129.947 144.526 129.718 145.704 129.712C146.95 129.67 148.192 129.863 149.367 130.282L151.304 129.446L153.425 130.601L151.532 131.513C151.889 131.78 152.176 132.129 152.368 132.531Z" fill="#EA8B24"/>
<path id="Vector_79" d="M143.006 143.223C151.593 143.223 158.554 139.144 158.554 134.112C158.554 129.08 151.593 125 143.006 125C134.419 125 127.458 129.08 127.458 134.112C127.458 139.144 134.419 143.223 143.006 143.223Z" stroke="#F7931E" stroke-width="2.03" stroke-miterlimit="10"/>
<path id="Vector_80" d="M202.045 72.8915V111.701L172.666 96.1303V56.6896" fill="url(#paint4_linear_1_12589)"/>
<path id="Vector_81" d="M183.678 82.6794C175.174 82.6794 168.015 79.3205 165.834 74.7457L165.15 74.9584C165.15 80.9543 173.441 85.8103 183.678 85.8103C193.108 85.8103 200.883 81.6839 202.045 76.3491L200.928 75.7336C198.284 79.7916 191.558 82.6794 183.678 82.6794Z" fill="#FF912E"/>
<path id="Vector_82" d="M165.158 71.8275V74.9585L165.842 74.7457C165.398 73.8365 165.164 72.8392 165.158 71.8275Z" fill="#E0944F"/>
<path id="Vector_83" d="M168.927 71.9567C168.927 76.5619 175.562 80.316 183.716 80.316C190.555 80.316 196.346 77.6638 198.01 74.0769L193.192 71.3563V71.4931H189.81C189.84 71.399 189.86 71.3023 189.871 71.2043C189.858 70.9848 189.787 70.7726 189.666 70.5888C189.478 70.2567 189.191 69.9912 188.845 69.8289C188.354 69.5723 187.811 69.4295 187.257 69.4109C186.739 69.3733 186.219 69.4538 185.737 69.6465C185.266 69.8491 185.084 70.1024 185.19 70.4064C185.35 70.8073 185.596 71.168 185.912 71.4627C186.277 71.8342 186.62 72.2276 186.938 72.6406C187.089 72.8187 187.187 73.0362 187.219 73.2677C187.251 73.4991 187.217 73.735 187.12 73.9477C186.749 74.5609 186.164 75.0155 185.479 75.2244C184.342 75.7028 183.125 75.9607 181.892 75.9843C180.562 76.0284 179.236 75.8407 177.971 75.4296L176.025 76.2655L173.745 75.156L175.638 74.3429C175.299 74.1163 174.994 73.8425 174.733 73.5297C174.538 73.3062 174.386 73.0486 174.285 72.7698C174.221 72.5702 174.183 72.3634 174.171 72.1543C174.148 72.0133 174.148 71.8696 174.171 71.7287L174.239 71.5691H177.621C177.586 71.6812 177.558 71.7954 177.537 71.9111C177.554 72.1853 177.649 72.4491 177.811 72.671C178.081 73.0935 178.469 73.4266 178.928 73.6285C179.54 73.9368 180.211 74.1104 180.896 74.1377C181.513 74.1794 182.132 74.0807 182.705 73.8489C183.171 73.6463 183.348 73.393 183.237 73.089C183.066 72.6842 182.807 72.3231 182.477 72.0327C182.105 71.6655 181.759 71.2718 181.443 70.8548C181.297 70.6737 181.205 70.4542 181.179 70.2224C181.154 69.9907 181.195 69.7565 181.299 69.5477C181.703 68.925 182.314 68.4648 183.024 68.2482C184.116 67.8074 185.282 67.5778 186.459 67.5718H186.505L179.954 63.8786C173.616 64.8285 168.927 68.0886 168.927 71.9567Z" fill="#FFD64C"/>
<path id="Vector_84" d="M165.842 74.7456C168.023 79.3052 175.182 82.6793 183.685 82.6793C191.566 82.6793 198.284 79.7992 200.966 75.7335L199.325 74.8064C197.296 78.8645 191.072 81.8206 183.716 81.8206C174.726 81.8206 167.407 77.3902 167.407 71.9415C167.407 67.7314 171.785 64.1445 177.925 62.7234L176.36 61.8419C169.778 63.5062 165.166 67.3439 165.166 71.8123C165.167 72.8285 165.399 73.8312 165.842 74.7456Z" fill="#FFD64C"/>
<path id="Vector_85" d="M183.047 68.271C182.337 68.4877 181.726 68.9478 181.322 69.5705C181.218 69.7793 181.176 70.0135 181.202 70.2453C181.228 70.477 181.319 70.6965 181.466 70.8776C181.782 71.2947 182.127 71.6883 182.5 72.0555C182.829 72.3459 183.089 72.707 183.26 73.1118C183.376 73.4411 183.199 73.6944 182.728 73.8717C182.154 74.1035 181.536 74.2023 180.919 74.1605C180.234 74.1332 179.563 73.9596 178.951 73.6514C178.492 73.4495 178.103 73.1163 177.834 72.6938C177.672 72.4719 177.577 72.2082 177.56 71.9339C177.581 71.8182 177.609 71.704 177.644 71.5919H174.262L174.194 71.7515C174.171 71.8924 174.171 72.0362 174.194 72.1771C174.206 72.3863 174.244 72.5931 174.308 72.7926C174.409 73.0714 174.561 73.329 174.756 73.5526C175.017 73.8654 175.322 74.1392 175.66 74.3657L173.768 75.1788L176.048 76.2883L177.993 75.4524C179.258 75.8635 180.585 76.0512 181.915 76.0072C183.148 75.9835 184.365 75.7256 185.501 75.2472C186.187 75.0383 186.772 74.5837 187.143 73.9705C187.24 73.7578 187.274 73.5219 187.242 73.2905C187.209 73.059 187.112 72.8415 186.961 72.6634C186.643 72.2504 186.3 71.857 185.935 71.4855C185.619 71.1909 185.373 70.8302 185.213 70.4292C185.101 70.0999 185.284 69.8466 185.76 69.6693C186.242 69.4766 186.762 69.3961 187.28 69.4337C187.834 69.4523 188.377 69.5952 188.868 69.8517C189.214 70.0141 189.5 70.2796 189.689 70.6116C189.81 70.7954 189.88 71.0076 189.894 71.2272C189.883 71.3252 189.863 71.4219 189.833 71.5159H193.215V71.3792L186.558 67.6251H186.489C185.311 67.6204 184.143 67.8396 183.047 68.271Z" fill="#EA8B24"/>
<path id="Vector_86" d="M167.407 71.9567C167.407 77.3978 174.726 81.8359 183.716 81.8359C191.072 81.8359 197.296 78.8721 199.325 74.8217L198.01 74.0617C196.346 77.6486 190.578 80.3008 183.716 80.3008C175.562 80.3008 168.927 76.5543 168.927 71.9415C168.927 68.0734 173.624 64.8209 179.962 63.8786L177.925 62.7311C171.785 64.1598 167.407 67.7467 167.407 71.9567Z" fill="#F7931E"/>
<g id="Group_2">
<path id="Vector_87" d="M75.3869 122.872C74.4595 122.821 73.5556 122.561 72.7423 122.112L57.422 114.034L57.3004 98.0756L49.1843 102.939L49.2907 116.58L48.5308 117.059L48.4168 117.127L48.356 109.095L47.1553 108.464L41.0758 105.265L32.9597 110.128L39.0392 113.327L40.2399 113.958L40.3083 122.667L39.1152 123.381L40.3159 124.005L45.4607 120.874L45.5063 126.756L52.4825 122.568L53.5616 123.138L53.6224 131.034L53.6908 139.484L61.8069 134.621V133.055L66.7541 130.092L67.8332 130.662L67.894 138.329L67.9623 147.008L76.0785 142.144L76.0101 133.466L75.9493 125.798L73.6695 124.605L77.4007 122.371C76.7959 122.738 76.0935 122.913 75.3869 122.872Z" fill="#1EC3F6"/>
<path id="Vector_88" d="M87.0746 114.163C85.4867 110.974 83.3343 108.098 80.7216 105.675L83.5257 103.996C84.3013 103.522 84.9609 102.881 85.456 102.118C86.8118 99.9435 87.4695 97.4056 87.3406 94.8459C87.3007 92.8065 86.9968 90.7809 86.4363 88.8196C85.8423 86.6625 85.0115 84.5777 83.9589 82.6033C82.9157 80.6154 81.6402 78.7583 80.1592 77.071C78.859 75.562 77.3183 74.2782 75.5996 73.2713L75.5084 61.9863L67.3847 57.7079L61.3052 61.3555L61.252 54.4705L53.0523 50.1997L44.9362 55.0633L53.0599 59.3417V61.4315L47.8924 58.7034L39.0619 54.0526L30.9458 58.9162L39.8218 63.567V72.2378L38.6287 72.9522L39.8294 73.5829L45.0198 70.4748V71.8655L52.9687 76.0375L48.9411 78.4465L49.0627 93.6452L62.8251 100.895C64.5679 101.812 66.0447 101.913 67.2555 101.199L75.3716 96.3354C74.1608 97.0447 72.684 96.9433 70.9412 96.0314L57.1788 88.7816L57.0572 73.8033L58.0375 73.2105L59.2534 73.8489L59.299 79.3736L67.4227 83.6521L71.3668 81.2887C71.5644 81.4938 71.7695 81.6914 71.9595 81.9118C73.4406 83.599 74.7161 85.4561 75.7592 87.4441C76.8117 89.4185 77.6426 91.5033 78.2366 93.6604C78.7971 95.6217 79.101 97.6473 79.1409 99.6867C79.2215 101.863 78.7674 104.026 77.8186 105.987L71.6252 109.703C74.6424 112.283 77.1103 115.444 78.8825 118.997C80.6611 122.502 81.5978 126.374 81.6183 130.304C81.7439 132.391 81.2972 134.472 80.3264 136.323C79.7873 137.255 79.0248 138.039 78.1074 138.603L86.2235 133.739C87.1409 133.175 87.9035 132.392 88.4425 131.46C89.4129 129.608 89.8596 127.527 89.7344 125.441C89.7328 121.527 88.8223 117.666 87.0746 114.163ZM67.3163 66.8879V68.9777L61.2368 65.7784V63.6885L67.3163 66.8879Z" fill="#1EC3F6"/>
<g id="Group_3" opacity="0.68">
<path id="Vector_89" opacity="0.68" d="M75.3869 122.872C74.4595 122.821 73.5556 122.561 72.7423 122.112L57.422 114.034L57.3004 98.0756L49.1843 102.939L49.2907 116.58L48.5308 117.059L48.4168 117.127L48.356 109.095L47.1553 108.464L41.0758 105.265L32.9597 110.128L39.0392 113.327L40.2399 113.958L40.3083 122.667L39.1152 123.381L40.3159 124.005L45.4607 120.874L45.5063 126.756L52.4825 122.568L53.5616 123.138L53.6224 131.034L53.6908 139.484L61.8069 134.621V133.055L66.7541 130.092L67.8332 130.662L67.894 138.329L67.9623 147.008L76.0785 142.144L76.0101 133.466L75.9493 125.798L73.6695 124.605L77.4007 122.371C76.7959 122.738 76.0935 122.913 75.3869 122.872Z" fill="#054F70"/>
<path id="Vector_90" opacity="0.68" d="M87.0746 114.163C85.4867 110.974 83.3343 108.098 80.7216 105.675L83.5257 103.996C84.3013 103.522 84.9609 102.881 85.456 102.118C86.8118 99.9435 87.4695 97.4056 87.3406 94.8459C87.3007 92.8065 86.9968 90.7809 86.4363 88.8196C85.8423 86.6625 85.0115 84.5777 83.9589 82.6033C82.9157 80.6154 81.6402 78.7583 80.1592 77.071C78.859 75.562 77.3183 74.2782 75.5996 73.2713L75.5084 61.9863L67.3847 57.7079L61.3052 61.3555L61.252 54.4705L53.0523 50.1997L44.9362 55.0633L53.0599 59.3417V61.4315L47.8924 58.7034L39.0619 54.0526L30.9458 58.9162L39.8218 63.567V72.2378L38.6287 72.9522L39.8294 73.5829L45.0198 70.4748V71.8655L52.9687 76.0375L48.9411 78.4465L49.0627 93.6452L62.8251 100.895C64.5679 101.812 66.0447 101.913 67.2555 101.199L75.3716 96.3354C74.1608 97.0447 72.684 96.9433 70.9412 96.0314L57.1788 88.7816L57.0572 73.8033L58.0375 73.2105L59.2534 73.8489L59.299 79.3736L67.4227 83.6521L71.3668 81.2887C71.5644 81.4938 71.7695 81.6914 71.9595 81.9118C73.4406 83.599 74.7161 85.4561 75.7592 87.4441C76.8117 89.4185 77.6426 91.5033 78.2366 93.6604C78.7971 95.6217 79.101 97.6473 79.1409 99.6867C79.2215 101.863 78.7674 104.026 77.8186 105.987L71.6252 109.703C74.6424 112.283 77.1103 115.444 78.8825 118.997C80.6611 122.502 81.5978 126.374 81.6183 130.304C81.7439 132.391 81.2972 134.472 80.3264 136.323C79.7873 137.255 79.0248 138.039 78.1074 138.603L86.2235 133.739C87.1409 133.175 87.9035 132.392 88.4425 131.46C89.4129 129.608 89.8596 127.527 89.7344 125.441C89.7328 121.527 88.8223 117.666 87.0746 114.163ZM67.3163 66.8879V68.9777L61.2368 65.7784V63.6885L67.3163 66.8879Z" fill="#054F70"/>
</g>
<path id="Vector_91" d="M40.1943 113.974L40.2703 124.012L39.0696 123.382L31.4551 119.369L32.9142 110.136L38.9936 113.335L40.1943 113.974Z" fill="#1EC3F6"/>
<path id="Vector_92" d="M53.569 123.169L53.6374 131.064L53.7058 139.515L45.5821 135.236L45.5137 126.786L45.4453 118.89L53.569 123.169Z" fill="#1EC3F6"/>
<path id="Vector_93" d="M67.8408 130.684L67.9015 138.352L67.9699 147.031L59.8462 142.752L59.7778 134.302L59.717 126.406L67.8408 130.684Z" fill="#1EC3F6"/>
<path id="Vector_94" d="M39.7914 63.567V63.605L39.8673 73.6133L38.6667 72.975L32.534 69.7452L30.9685 58.9238L39.7914 63.567Z" fill="#1EC3F6"/>
<path id="Vector_95" d="M53.06 59.3721L53.1512 70.6496L53.1968 76.1667L45.0731 71.8883L45.0275 66.3635L44.9363 55.0937L53.06 59.3721Z" fill="#1EC3F6"/>
<path id="Vector_96" d="M78.9585 119.035C80.7371 122.54 81.6738 126.412 81.6943 130.343C81.8195 132.429 81.3728 134.51 80.4024 136.361C79.5956 137.758 78.2852 138.794 76.7395 139.257C74.9679 139.743 73.1029 139.78 71.3136 139.363C70.1504 139.124 69.009 138.788 67.9015 138.36L67.8407 130.692L59.717 126.414L59.7778 134.309L53.6375 131.072L53.5691 123.154L45.4454 118.89L45.5062 126.786L39.0619 123.389L40.2626 124.012L40.179 113.966L38.9783 113.335L38.6667 72.9978L39.8674 73.6285L39.8218 63.605L45.0578 66.3636L45.1034 71.8883L53.2271 76.1667L53.1815 70.642L59.3218 73.8793L59.3674 79.4041L67.4911 83.6825L67.4455 78.1654C69.1642 79.1722 70.7049 80.456 72.0051 81.965C73.4861 83.6523 74.7616 85.5094 75.8048 87.4974C76.8573 89.4718 77.6881 91.5565 78.2822 93.7136C78.8427 95.6749 79.1466 97.7005 79.1865 99.7399C79.3154 102.3 78.6577 104.838 77.3019 107.013C76.7006 107.938 75.8588 108.682 74.8668 109.165C73.8748 109.649 72.77 109.853 71.6707 109.756C74.6973 112.329 77.1757 115.485 78.9585 119.035ZM70.7816 125.433C71.1446 124.552 71.3156 123.604 71.2832 122.652C71.2645 121.515 71.0932 120.385 70.774 119.293C70.4537 118.155 70.013 117.055 69.4593 116.01C68.9254 115.011 68.2694 114.082 67.5063 113.244C66.799 112.459 65.9607 111.804 65.0289 111.306L49.1843 102.947L49.3134 118.868L64.6261 126.953C65.4394 127.402 66.3433 127.662 67.2707 127.713C68.0188 127.77 68.7651 127.583 69.3985 127.181C70.0255 126.74 70.5091 126.124 70.7892 125.411L70.7816 125.433ZM48.9411 78.4465L49.0627 93.6452L62.8251 100.895C64.5679 101.812 66.0447 101.913 67.2555 101.199C68.4562 100.439 69.0566 98.9192 69.0414 96.5406C69.0418 94.287 68.4439 92.0736 67.3087 90.1267C66.3549 88.3459 64.9094 86.8766 63.1443 85.8939L48.9411 78.4465Z" fill="#1EC3F6"/>
<path id="Vector_97" d="M67.3239 66.8879L67.4151 78.1729L67.4607 83.69L59.337 79.404L59.2914 73.8869L59.2002 62.6094L67.3239 66.8879Z" fill="#1EC3F6"/>
</g>
</g>
</g>
</g>
<defs>
<linearGradient id="paint0_linear_1_12589" x1="184.878" y1="120.593" x2="176.192" y2="136.718" gradientUnits="userSpaceOnUse">
<stop stop-color="#00C1A5"/>
<stop offset="0.23" stop-color="#3BCFBA"/>
<stop offset="1" stop-color="white"/>
</linearGradient>
<linearGradient id="paint1_linear_1_12589" x1="64.2614" y1="128.078" x2="38.2488" y2="149.614" gradientUnits="userSpaceOnUse">
<stop stop-color="#00C1A5"/>
<stop offset="1" stop-color="white"/>
</linearGradient>
<linearGradient id="paint2_linear_1_12589" x1="11641.1" y1="4275.99" x2="10634" y2="5815.43" gradientUnits="userSpaceOnUse">
<stop stop-color="#00C1A5"/>
<stop offset="1" stop-color="white"/>
</linearGradient>
<linearGradient id="paint3_linear_1_12589" x1="11994.1" y1="6439.68" x2="10986.8" y2="7979.58" gradientUnits="userSpaceOnUse">
<stop stop-color="#00C1A5"/>
<stop offset="1" stop-color="white"/>
</linearGradient>
<linearGradient id="paint4_linear_1_12589" x1="187.622" y1="78.6822" x2="186.717" y2="97.673" gradientUnits="userSpaceOnUse">
<stop offset="0.01" stop-color="#002F3F"/>
<stop offset="1" stop-color="#054F70"/>
</linearGradient>
</defs>
</svg>
