<svg width="245" height="200" viewBox="0 0 245 200" fill="none" xmlns="http://www.w3.org/2000/svg">
<g id="Finance analysis _Isometric (2) 1">
<path id="Vector" d="M0.598633 110.07L155.719 200L240.279 151.178L85.8682 61.7865L0.598633 110.07Z" fill="#EFDDD8"/>
<path id="Vector_2" opacity="0.32" d="M85.0558 113.413C79.9247 109.899 74.597 106.572 70.0731 102.245L30.8462 125.967L55.2957 139.565L91.2729 118.185C89.212 116.569 87.1937 114.867 85.0558 113.413Z" fill="url(#paint0_linear_1_6940)"/>
<path id="Vector_3" opacity="0.32" d="M132.835 139.043C127.703 135.528 126.626 137.752 122.102 133.425L85.1072 153.726L103.066 165.194L139.043 143.815C136.991 142.199 134.964 140.488 132.835 139.043Z" fill="url(#paint1_linear_1_6940)"/>
<path id="Vector_4" opacity="0.32" d="M183.564 164.194C178.432 160.679 177.355 162.902 172.831 158.575L135.853 178.877L153.812 190.345L201.411 163.339C199.359 161.714 185.693 165.639 183.564 164.194Z" fill="url(#paint2_linear_1_6940)"/>
<path id="Vector_5" opacity="0.32" d="M72.784 95.5916L24.4495 124.274L0 110.677L48.1635 81.5496" fill="url(#paint3_linear_1_6940)"/>
<path id="Vector_6" d="M108.838 43.6909V74.5884L54.449 106.264V69.808L108.838 43.6909Z" fill="#FFC050"/>
<path id="Vector_7" d="M30.47 91.8202V60.5293L54.4491 74.3746V106.264" fill="#1E7BF6"/>
<path id="Vector_8" d="M54.4491 106.264V74.3746L30.47 60.5293V91.8202L54.4491 106.264Z" fill="#146666"/>
<path id="Vector_9" d="M54.2181 74.7424L30.2903 60.9313L86.2102 29.1273L108.838 43.691L54.2181 74.7424Z" fill="white"/>
<path id="Vector_10" d="M82.8066 30.3159C79.2149 30.0081 75.435 28.922 72.7839 26.4677V37.106C72.7828 38.5566 73.0676 39.9932 73.6219 41.3336C74.1762 42.6741 74.9893 43.8922 76.0146 44.9183C77.0399 45.9444 78.2573 46.7583 79.5973 47.3137C80.9374 47.8691 82.3737 48.1549 83.8243 48.1549C86.7523 48.1549 89.5605 46.9917 91.631 44.9213C93.7014 42.8508 94.8646 40.0427 94.8646 37.1146V26.2881C91.0933 27.8188 86.8174 30.6666 82.8066 30.3159Z" fill="#1E7BF6"/>
<path id="Vector_11" d="M83.8243 32.2487C89.9217 32.2487 94.8646 29.6299 94.8646 26.3993C94.8646 23.1688 89.9217 20.5499 83.8243 20.5499C77.7269 20.5499 72.7839 23.1688 72.7839 26.3993C72.7839 29.6299 77.7269 32.2487 83.8243 32.2487Z" fill="#5ED18D"/>
<path id="Vector_12" d="M83.8242 27.3657C83.8242 27.3657 76.3158 26.2625 74.3232 14.1105C74.3232 14.1361 80.7285 17.668 83.8242 27.3657Z" fill="#5ED18D"/>
<path id="Vector_13" d="M84.9275 25.8434C84.9275 25.8434 76.3159 10.3818 84.9275 0C87.5567 8.41386 87.5567 17.4296 84.9275 25.8434Z" fill="#5ED18D"/>
<path id="Vector_14" d="M83.8242 16.1286C83.8242 16.1286 76.3158 15.0254 74.3232 2.8734C74.3232 2.8734 80.7285 6.40527 83.8242 16.1286Z" fill="#5ED18D"/>
<path id="Vector_15" d="M84.7394 21.0801C84.7394 21.0801 82.858 13.7255 93.2911 7.20055C93.2911 7.20055 92.5044 14.4695 84.7394 21.0801Z" fill="#5ED18D"/>
<path id="Vector_16" d="M83.8243 32.2487C89.9217 32.2487 94.8646 29.6299 94.8646 26.3993C94.8646 23.1688 89.9217 20.5499 83.8243 20.5499C77.7269 20.5499 72.7839 23.1688 72.7839 26.3993C72.7839 29.6299 77.7269 32.2487 83.8243 32.2487Z" fill="#146666"/>
<path id="Vector_17" d="M83.8242 27.3657C83.8242 27.3657 76.3158 26.2625 74.3232 14.1105C74.3232 14.1361 80.7285 17.668 83.8242 27.3657Z" fill="#5ED18D"/>
<path id="Vector_18" d="M84.9275 25.8434C84.9275 25.8434 76.3159 10.3818 84.9275 0C87.5567 8.41386 87.5567 17.4296 84.9275 25.8434Z" fill="#5ED18D"/>
<path id="Vector_19" d="M83.8242 16.1286C83.8242 16.1286 76.3158 15.0254 74.3232 2.8734C74.3232 2.8734 80.7285 6.40527 83.8242 16.1286Z" fill="#5ED18D"/>
<path id="Vector_20" d="M84.7394 21.0801C84.7394 21.0801 82.858 13.7255 93.2911 7.20055C93.2911 7.20055 92.5044 14.4695 84.7394 21.0801Z" fill="#5ED18D"/>
<path id="Vector_21" d="M53.8504 67.4221C64.1891 67.4221 72.5702 62.5136 72.5702 56.4587C72.5702 50.4039 64.1891 45.4954 53.8504 45.4954C43.5118 45.4954 35.1306 50.4039 35.1306 56.4587C35.1306 62.5136 43.5118 67.4221 53.8504 67.4221Z" fill="#FF912E"/>
<path id="Vector_22" d="M35.1306 56.4587V53.2945L37.1659 55.8258L35.1306 56.4587Z" fill="#E0944F"/>
<path id="Vector_23" d="M72.5617 53.2945V56.4587H70.1929L71.9289 53.9188L72.5617 53.2945Z" fill="#E0944F"/>
<path id="Vector_24" d="M53.8504 64.258C64.1891 64.258 72.5702 59.3495 72.5702 53.2946C72.5702 47.2397 64.1891 42.3313 53.8504 42.3313C43.5118 42.3313 35.1306 47.2397 35.1306 53.2946C35.1306 59.3495 43.5118 64.258 53.8504 64.258Z" fill="#FFB92C"/>
<path id="Vector_25" d="M63.3428 51.8322C63.4767 52.096 63.5273 52.3942 63.4882 52.6874L63.4112 52.9782H59.9905C60.0197 52.8834 60.0397 52.786 60.0504 52.6874C60.0377 52.4649 59.967 52.2497 59.8451 52.0631C59.6465 51.7264 59.3475 51.4602 58.99 51.302C58.4923 51.0435 57.9428 50.9002 57.3822 50.883C56.8639 50.8433 56.3433 50.9222 55.86 51.1139C55.3811 51.3191 55.1958 51.5871 55.3042 51.9177C55.4647 52.3233 55.7129 52.6883 56.0311 52.9867C56.3997 53.3617 56.7452 53.7586 57.0658 54.1754C57.2181 54.3549 57.3166 54.5737 57.3499 54.8067C57.3832 55.0398 57.3499 55.2774 57.254 55.4924C56.8789 56.1125 56.2881 56.5723 55.5949 56.7837C54.4475 57.2608 53.22 57.5162 51.9775 57.5362C50.6355 57.582 49.2957 57.3939 48.0181 56.9804L46.0512 57.8356L43.7507 56.7153L45.6578 55.8601C45.3124 55.6215 45.0041 55.3334 44.7427 55.0049C44.5463 54.7812 44.3926 54.5232 44.2895 54.2438C44.2239 54.0444 44.1837 53.8375 44.1698 53.6281C44.1468 53.4865 44.1468 53.3421 44.1698 53.2005L44.2382 53.038H47.6589C47.623 53.1501 47.5945 53.2643 47.5734 53.3801C47.5875 53.6605 47.6826 53.9308 47.847 54.1583C48.1197 54.5847 48.5125 54.9209 48.9759 55.1246C49.5932 55.4348 50.2696 55.6098 50.9599 55.6378C51.584 55.6807 52.2098 55.5813 52.7899 55.347C53.2631 55.1418 53.4399 54.8738 53.3202 54.5431C53.1524 54.135 52.8952 53.7697 52.5676 53.4742C52.1916 53.1036 51.8429 52.7064 51.5243 52.2855C51.3744 52.1023 51.2808 51.8796 51.255 51.6443C51.2292 51.409 51.2723 51.1713 51.3789 50.9599C51.7786 50.3355 52.3834 49.8699 53.0893 49.643C54.1929 49.1973 55.3711 48.9652 56.5613 48.9588C57.8206 48.9156 59.0768 49.1099 60.2642 49.5318L62.2225 48.6766L64.369 49.8482L62.4021 50.7034C62.8107 50.9891 63.1355 51.3788 63.3428 51.8322Z" fill="#EA8B24"/>
<path id="Vector_26" d="M53.8761 62.6331C62.5522 62.6331 69.5857 58.5134 69.5857 53.4314C69.5857 48.3495 62.5522 44.2297 53.8761 44.2297C45.1999 44.2297 38.1665 48.3495 38.1665 53.4314C38.1665 58.5134 45.1999 62.6331 53.8761 62.6331Z" stroke="#F7931E" stroke-width="6.09" stroke-miterlimit="10"/>
<path id="Vector_27" d="M53.8504 61.3846C64.1891 61.3846 72.5702 56.4761 72.5702 50.4212C72.5702 44.3663 64.1891 39.4579 53.8504 39.4579C43.5118 39.4579 35.1306 44.3663 35.1306 50.4212C35.1306 56.4761 43.5118 61.3846 53.8504 61.3846Z" fill="#FF912E"/>
<path id="Vector_28" d="M35.1306 50.4211V47.257L37.1659 49.7883L35.1306 50.4211Z" fill="#E0944F"/>
<path id="Vector_29" d="M72.5617 47.257V50.4211H70.1929L71.9289 47.8813L72.5617 47.257Z" fill="#E0944F"/>
<path id="Vector_30" d="M53.8504 58.2204C64.1891 58.2204 72.5702 53.312 72.5702 47.2571C72.5702 41.2022 64.1891 36.2937 53.8504 36.2937C43.5118 36.2937 35.1306 41.2022 35.1306 47.2571C35.1306 53.312 43.5118 58.2204 53.8504 58.2204Z" fill="#FFB92C"/>
<path id="Vector_31" d="M63.3428 45.7862C63.4767 46.0499 63.5273 46.3481 63.4882 46.6413L63.4112 46.9321H59.9905C60.0197 46.8373 60.0397 46.7399 60.0504 46.6413C60.0377 46.4189 59.967 46.2036 59.8451 46.0171C59.6465 45.6803 59.3475 45.4142 58.99 45.2559C58.4923 44.9974 57.9428 44.8542 57.3822 44.8369C56.8639 44.7972 56.3433 44.8762 55.86 45.0678C55.3811 45.273 55.1958 45.541 55.3042 45.8717C55.4647 46.2772 55.7129 46.6422 56.0311 46.9406C56.3997 47.3156 56.7452 47.7126 57.0658 48.1293C57.2181 48.3088 57.3166 48.5277 57.3499 48.7607C57.3832 48.9937 57.3499 49.2314 57.254 49.4463C56.8789 50.0664 56.2881 50.5262 55.5949 50.7376C54.4475 51.2148 53.22 51.4701 51.9775 51.4902C50.6355 51.5359 49.2957 51.3478 48.0181 50.9343L46.0512 51.7895L43.7507 50.6692L45.6578 49.814C45.3124 49.5754 45.0041 49.2873 44.7427 48.9589C44.5463 48.7351 44.3926 48.4771 44.2895 48.1978C44.2239 47.9983 44.1837 47.7915 44.1698 47.582C44.1468 47.4404 44.1468 47.296 44.1698 47.1544L44.2382 46.992H47.6589C47.623 47.104 47.5945 47.2183 47.5734 47.334C47.5875 47.6144 47.6826 47.8847 47.847 48.1122C48.1197 48.5387 48.5125 48.8749 48.9759 49.0786C49.5932 49.3888 50.2696 49.5637 50.9599 49.5917C51.584 49.6346 52.2098 49.5352 52.7899 49.3009C53.2631 49.0957 53.4399 48.8277 53.3202 48.4971C53.1524 48.0889 52.8952 47.7237 52.5676 47.4281C52.1916 47.0576 51.8429 46.6603 51.5243 46.2394C51.3744 46.0562 51.2808 45.8335 51.255 45.5982C51.2292 45.3629 51.2723 45.1252 51.3789 44.9139C51.7786 44.2895 52.3834 43.8238 53.0893 43.5969C54.1929 43.1513 55.3711 42.9191 56.5613 42.9128C57.8206 42.8695 59.0768 43.0639 60.2642 43.4857L62.2225 42.6306L64.369 43.8021L62.4021 44.6573C62.8107 44.943 63.1355 45.3328 63.3428 45.7862Z" fill="#EA8B24"/>
<path id="Vector_32" d="M53.8761 56.5869C62.5522 56.5869 69.5857 52.4672 69.5857 47.3853C69.5857 42.3033 62.5522 38.1836 53.8761 38.1836C45.1999 38.1836 38.1665 42.3033 38.1665 47.3853C38.1665 52.4672 45.1999 56.5869 53.8761 56.5869Z" stroke="#F7931E" stroke-width="2.03" stroke-miterlimit="10"/>
<path id="Vector_33" d="M46.5301 56.7666C56.8688 56.7666 65.2499 51.8581 65.2499 45.8032C65.2499 39.7483 56.8688 34.8398 46.5301 34.8398C36.1914 34.8398 27.8103 39.7483 27.8103 45.8032C27.8103 51.8581 36.1914 56.7666 46.5301 56.7666Z" fill="#FF912E"/>
<path id="Vector_34" d="M27.8103 45.8032V42.6391L29.8456 45.1704L27.8103 45.8032Z" fill="#E0944F"/>
<path id="Vector_35" d="M65.2499 42.6391V45.8032H62.8726L64.6086 43.2634L65.2499 42.6391Z" fill="#E0944F"/>
<path id="Vector_36" d="M46.5301 53.6024C56.8688 53.6024 65.2499 48.694 65.2499 42.6391C65.2499 36.5842 56.8688 31.6757 46.5301 31.6757C36.1914 31.6757 27.8103 36.5842 27.8103 42.6391C27.8103 48.694 36.1914 53.6024 46.5301 53.6024Z" fill="#FFB92C"/>
<path id="Vector_37" d="M56.0312 41.1767C56.1651 41.4405 56.2158 41.7387 56.1766 42.0319L56.0997 42.3226H52.679C52.7081 42.2278 52.7282 42.1305 52.7388 42.0319C52.7262 41.8094 52.6554 41.5941 52.5336 41.4076C52.335 41.0708 52.0359 40.8047 51.6784 40.6465C51.1807 40.3879 50.6312 40.2447 50.0707 40.2274C49.5523 40.1877 49.0317 40.2667 48.5485 40.4583C48.0696 40.6636 47.8843 40.9315 47.9926 41.2622C48.1531 41.6677 48.4014 42.0328 48.7195 42.3312C49.0881 42.7061 49.4337 43.1031 49.7543 43.5199C49.9066 43.6993 50.005 43.9182 50.0383 44.1512C50.0716 44.3842 50.0384 44.6219 49.9424 44.8368C49.5894 45.4665 49.0171 45.9443 48.3347 46.1795C47.1872 46.6566 45.9598 46.912 44.7173 46.932C43.3752 46.9777 42.0354 46.7896 40.7578 46.3762L38.7909 47.2313L36.4905 46.111L38.3975 45.2559C38.0522 45.0173 37.7439 44.7291 37.4825 44.4007C37.286 44.1769 37.1324 43.9189 37.0292 43.6396C36.9637 43.4402 36.9235 43.2333 36.9095 43.0239C36.8865 42.8823 36.8865 42.7379 36.9095 42.5963L36.9779 42.4338H40.3986C40.3628 42.5459 40.3342 42.6601 40.3131 42.7759C40.3273 43.0562 40.4223 43.3265 40.5868 43.5541C40.8595 43.9805 41.2522 44.3167 41.7156 44.5204C42.3329 44.8306 43.0093 45.0055 43.6996 45.0335C44.3238 45.0765 44.9496 44.977 45.5297 44.7428C46.0029 44.5375 46.1796 44.2696 46.0599 43.9389C45.8921 43.5308 45.635 43.1655 45.3073 42.8699C44.9313 42.4994 44.5827 42.1021 44.264 41.6812C44.1141 41.4981 44.0206 41.2753 43.9948 41.04C43.969 40.8047 44.012 40.567 44.1186 40.3557C44.5184 39.7313 45.1232 39.2656 45.829 39.0387C46.9326 38.5931 48.1108 38.3609 49.301 38.3546C50.5603 38.3113 51.8166 38.5057 53.0039 38.9276L54.9623 38.0724L57.1088 39.244L55.1419 40.0992C55.5247 40.3773 55.8307 40.748 56.0312 41.1767Z" fill="#EA8B24"/>
<path id="Vector_38" d="M46.5643 51.9776C55.2405 51.9776 62.2739 47.8578 62.2739 42.7759C62.2739 37.6939 55.2405 33.5742 46.5643 33.5742C37.8882 33.5742 30.8547 37.6939 30.8547 42.7759C30.8547 47.8578 37.8882 51.9776 46.5643 51.9776Z" stroke="#F7931E" stroke-width="2.03" stroke-miterlimit="10"/>
<path id="Vector_39" d="M63.0522 107.547L85.2868 94.343C85.7385 94.075 86.2539 93.9336 86.7791 93.9336C87.3042 93.9336 87.8197 94.075 88.2714 94.343L105.845 104.776C106.285 105.038 106.647 105.411 106.898 105.857C107.148 106.303 107.277 106.806 107.272 107.318C107.267 107.829 107.128 108.33 106.868 108.771C106.609 109.212 106.238 109.577 105.794 109.83L84.5599 121.88C84.1214 122.127 83.6266 122.257 83.1232 122.257C82.6198 122.257 82.125 122.127 81.6865 121.88L63.1206 111.438C62.7762 111.246 62.4882 110.968 62.2855 110.63C62.0827 110.292 61.9724 109.906 61.9654 109.512C61.9585 109.118 62.0553 108.729 62.246 108.384C62.4367 108.039 62.7148 107.751 63.0522 107.547Z" fill="#146666"/>
<path id="Vector_40" d="M61.949 109.454L61.9575 105.819L64.4632 106.606L63.7277 109.531L61.949 109.454Z" fill="#146666"/>
<path id="Vector_41" d="M107.256 107.051V103.647L105.135 104.639L106.136 106.606L107.256 107.051Z" fill="#146666"/>
<path id="Vector_42" d="M63.0521 103.887L85.2866 90.6829C85.7383 90.4149 86.2538 90.2735 86.7789 90.2735C87.3041 90.2735 87.8195 90.4149 88.2712 90.6829L105.845 101.116C106.284 101.378 106.647 101.751 106.898 102.197C107.148 102.643 107.277 103.146 107.272 103.658C107.267 104.169 107.127 104.67 106.868 105.111C106.609 105.552 106.238 105.917 105.794 106.17L84.5597 118.22C84.1213 118.467 83.6264 118.597 83.123 118.597C82.6197 118.597 82.1248 118.467 81.6863 118.22L63.1034 107.752C62.7658 107.557 62.4846 107.278 62.2874 106.942C62.0903 106.606 61.9839 106.224 61.9787 105.834C61.9735 105.444 62.0698 105.06 62.2579 104.719C62.4461 104.377 62.7197 104.091 63.0521 103.887Z" fill="#2C9390"/>
<path id="Vector_43" d="M82.0542 99.2859L84.5599 98.2169L89.8534 108.385L87.3477 109.454L82.0542 99.2859Z" fill="white"/>
<path id="Vector_44" d="M94.249 101.826C95.3889 101.804 96.5211 102.017 97.5756 102.45C98.4308 102.843 98.8926 103.305 98.8926 103.93C98.8926 104.554 98.4308 105.016 97.4901 105.409C95.307 106.184 92.9203 106.163 90.7513 105.349C89.8961 104.956 89.4343 104.494 89.4343 103.87C89.4343 103.245 89.8876 102.784 90.8283 102.382C91.9172 101.96 93.0824 101.77 94.249 101.826ZM96.1646 103.93C96.1646 103.699 95.9593 103.485 95.5574 103.297C95.112 103.104 94.6317 103.005 94.1464 103.006C93.6644 102.985 93.1835 103.067 92.7353 103.245C92.3334 103.416 92.1281 103.622 92.1367 103.853C92.1452 104.083 92.3419 104.297 92.7439 104.485C93.1892 104.678 93.6696 104.777 94.1549 104.776C94.6369 104.797 95.1177 104.715 95.5659 104.537C95.9679 104.366 96.1646 104.16 96.1646 103.93Z" fill="white"/>
<path id="Vector_45" d="M82.4904 103.801C82.4904 104.391 82.0286 104.887 81.0879 105.281C78.9013 106.056 76.5109 106.032 74.3405 105.212C73.4854 104.81 73.0321 104.357 73.0236 103.733C73.015 103.109 73.4939 102.655 74.426 102.253C76.6086 101.475 78.9964 101.497 81.1648 102.313C82.0457 102.724 82.4904 103.211 82.4904 103.801ZM76.3502 104.366C76.7956 104.558 77.2759 104.657 77.7612 104.656C78.2432 104.677 78.7241 104.595 79.1723 104.417C79.5742 104.246 79.7794 104.041 79.7709 103.81C79.7623 103.579 79.5657 103.365 79.1637 103.177C78.2619 102.808 77.2542 102.793 76.3416 103.134C75.9397 103.305 75.743 103.51 75.743 103.741C75.743 103.972 75.9483 104.186 76.3502 104.374" fill="white"/>
<path id="Vector_46" d="M206.32 21.4307C202.778 21.6161 199.3 22.4479 196.058 23.8851C190.927 26.2368 206.32 30.4101 206.32 30.4101" fill="#F2AE16"/>
<path id="Vector_47" d="M213.867 55.3818C222.224 52.4666 226.409 42.6816 223.216 33.5263C220.022 24.371 210.659 19.3123 202.301 22.2275C193.944 25.1426 189.759 34.9276 192.952 44.083C196.146 53.2383 205.509 58.2969 213.867 55.3818Z" fill="#EA8B24"/>
<path id="Vector_48" d="M209.078 56.4382C217.435 53.523 221.621 43.738 218.427 34.5827C215.234 25.4273 205.87 20.3687 197.513 23.2838C189.156 26.199 184.97 35.984 188.164 45.1393C191.357 54.2946 200.721 59.3533 209.078 56.4382Z" fill="#FFD008"/>
<path id="Vector_49" d="M208.363 54.3872C215.69 51.8314 219.361 43.2559 216.562 35.2333C213.764 27.2107 205.556 22.7789 198.229 25.3347C190.902 27.8905 187.231 36.4661 190.029 44.4887C192.828 52.5113 201.036 56.943 208.363 54.3872Z" stroke="#F7931E" stroke-width="1.015" stroke-miterlimit="10"/>
<path id="Vector_50" d="M206.653 31.5987C207.119 31.8223 207.551 32.1102 207.936 32.4539L208.304 32.8473L206.251 35.0622C206.16 34.9596 206.035 34.8313 205.875 34.6773C205.563 34.432 205.221 34.2279 204.857 34.0702C204.363 33.8233 203.819 33.6945 203.267 33.6939C202.695 33.6696 202.133 33.8517 201.685 34.207C201.498 34.3517 201.347 34.5371 201.244 34.7491C201.14 34.961 201.086 35.1939 201.086 35.4299C201.093 35.7036 201.178 35.9698 201.329 36.1981C201.48 36.4264 201.692 36.6076 201.941 36.7212C202.56 37.0902 203.224 37.3776 203.917 37.5764C204.692 37.7987 205.47 38.0581 206.251 38.3546C207.037 38.6543 207.726 39.1629 208.244 39.8255C208.822 40.5697 209.125 41.4916 209.099 42.4338C209.127 43.5933 208.721 44.7215 207.962 45.5979C207.117 46.5151 205.987 47.1181 204.755 47.3083V49.5403H201.762V47.3938C201.177 47.3071 200.604 47.158 200.051 46.9491C199.575 46.7784 199.116 46.5607 198.683 46.2992C198.351 46.0925 198.031 45.8669 197.725 45.6236C197.513 45.4592 197.312 45.2792 197.127 45.0848L196.938 44.8539L198.931 42.7588C199.034 42.8785 199.182 43.0324 199.376 43.2206C199.763 43.5316 200.192 43.7878 200.65 43.9817C201.294 44.2991 202.002 44.463 202.719 44.4606C203.416 44.4988 204.103 44.2898 204.661 43.8705C204.882 43.6935 205.059 43.468 205.18 43.2115C205.3 42.955 205.359 42.6742 205.353 42.391C205.346 42.1163 205.262 41.8492 205.111 41.6196C204.959 41.39 204.747 41.207 204.498 41.0912C203.878 40.718 203.211 40.4304 202.514 40.236C201.733 40.0193 200.955 39.7628 200.18 39.4663C199.397 39.1649 198.711 38.6565 198.196 37.9954C197.617 37.2512 197.315 36.3294 197.34 35.3871C197.362 34.3058 197.793 33.273 198.546 32.4966C199.358 31.6067 200.451 31.0238 201.642 30.8462V28.6398H204.635V30.8718C205.341 31.0094 206.022 31.2546 206.653 31.5987Z" fill="#EA8B24"/>
<path id="Vector_51" d="M210.031 110.591L217.027 114.559V84.3717L222.525 87.5358L213.905 67.5247L204.729 77.7783L210.314 80.8227L210.031 110.591Z" fill="#1E7BF6"/>
<path id="Vector_52" d="M231.821 124L238.816 127.832V73.4767L244.315 76.6408L235.695 56.6382L226.519 66.8918L232.103 69.9362L231.821 124Z" fill="#1E7BF6"/>
<path id="Vector_53" d="M167.127 51.8417C178.613 47.4208 184.185 34.1177 179.57 22.1284C174.956 10.1391 161.904 4.00372 150.417 8.42459C138.93 12.8455 133.359 26.1485 137.973 38.1378C142.587 50.1271 155.64 56.2625 167.127 51.8417Z" fill="#EA8B24"/>
<path id="Vector_54" d="M165.332 52.5346C176.281 48.3207 181.416 35.1854 176.802 23.1961C172.187 11.2068 159.571 4.90363 148.622 9.11754C137.673 13.3314 132.537 26.4667 137.152 38.456C141.766 50.4453 154.383 56.7485 165.332 52.5346Z" fill="#1E7BF6"/>
<path id="Vector_55" d="M131.458 25.8434L158.148 30.7863L144.619 6.0974C144.619 6.0974 132.843 11.8784 131.458 25.8434Z" fill="#5ED18D"/>
<path id="Vector_56" opacity="0.24" d="M158.148 30.7863L178.176 28.2208C178.176 28.2208 177.791 16.7785 164.844 9.88581C162.033 8.48061 158.934 7.74904 155.792 7.74904C152.649 7.74904 149.55 8.48061 146.74 9.88581L158.148 30.7863Z" fill="#3E2928"/>
<path id="Vector_57" opacity="0.53" d="M168.538 145.696L207.996 142.276C207.996 142.276 211.553 145.431 210.869 146.483L168.538 150.075C168.538 150.075 167.05 146.569 168.538 145.696Z" fill="white"/>
<path id="Vector_58" opacity="0.53" d="M170.026 153.342L211.553 150.083L210.348 151.708L171.412 155.009L170.026 153.342Z" fill="white"/>
<path id="Vector_59" d="M189.259 164.895C174.43 164.895 162.817 157.198 162.817 147.424C162.817 137.649 174.43 129.987 189.259 129.987C204.088 129.987 215.701 137.683 215.701 147.458C215.701 157.233 204.088 164.895 189.259 164.895ZM189.259 135.939C178.142 135.939 168.803 141.198 168.803 147.424C168.803 153.649 178.21 158.909 189.259 158.909C200.308 158.909 209.715 153.649 209.715 147.424C209.715 141.198 200.342 135.973 189.259 135.973V135.939Z" fill="#1E7BF6"/>
<path id="Vector_60" d="M168.29 154L135.657 173.378C130.927 176.183 135.229 183.581 139.932 180.759L172.566 161.38C177.295 158.575 172.994 151.178 168.29 154Z" fill="#1E7BF6"/>
<g id="Group" opacity="0.24">
<path id="Vector_61" opacity="0.24" d="M189.259 164.895C174.43 164.895 162.817 157.198 162.817 147.424C162.817 137.649 174.43 129.987 189.259 129.987C204.088 129.987 215.701 137.683 215.701 147.458C215.701 157.233 204.088 164.895 189.259 164.895ZM189.259 135.939C178.142 135.939 168.803 141.198 168.803 147.424C168.803 153.649 178.21 158.909 189.259 158.909C200.308 158.909 209.715 153.649 209.715 147.424C209.715 141.198 200.342 135.973 189.259 135.973V135.939Z" fill="#3E2928"/>
<path id="Vector_62" opacity="0.24" d="M168.29 154L135.657 173.378C130.927 176.183 135.229 183.581 139.932 180.759L172.566 161.38C177.295 158.575 172.994 151.178 168.29 154Z" fill="#3E2928"/>
</g>
<path id="Vector_63" d="M121.743 44.529C118.327 47.4697 115.743 51.2562 114.251 55.5095C111.618 62.7699 118.194 74.6483 118.194 74.6483L128.456 66.5584" fill="#FF8F6F"/>
<path id="Vector_64" d="M120.614 140.608L117.835 139.069L118.536 135.101C118.536 135.101 122.675 135.486 123.034 136.965" fill="#003B94"/>
<path id="Vector_65" d="M121.657 140.548C122.282 140.163 122.94 139.83 123.581 139.479C125.189 138.624 127.507 137.692 128.49 136.059C128.688 135.728 128.781 135.346 128.759 134.961C128.736 134.577 128.597 134.208 128.362 133.903C126.9 132.142 123.727 135.032 122.093 133.048C121.768 132.663 121.623 126.549 121.623 126.549L115.432 128.259C115.432 128.259 114.38 140.54 114.499 141.301C114.619 142.062 116.749 142.789 116.749 142.789C117.38 142.665 117.985 142.43 118.536 142.096C119.186 141.626 118.596 135.862 119.391 136.674C120.186 137.487 120.58 140.634 120.58 140.634C120.941 140.651 121.303 140.622 121.657 140.548Z" fill="#1E7BF6"/>
<path id="Vector_66" d="M132.458 146.543L129.679 145.004L130.38 141.036C130.38 141.036 134.519 141.42 134.878 142.9" fill="#003B94"/>
<path id="Vector_67" d="M133.51 146.483C134.134 146.098 134.793 145.765 135.434 145.414C137.042 144.559 139.359 143.627 140.343 141.993C140.541 141.663 140.634 141.281 140.611 140.896C140.588 140.512 140.45 140.143 140.215 139.838C138.752 138.077 135.58 140.967 133.946 138.983C133.621 138.598 133.476 132.484 133.476 132.484L127.284 134.194C127.284 134.194 126.233 146.475 126.352 147.236C126.472 147.997 128.601 148.724 128.601 148.724C129.233 148.6 129.838 148.365 130.389 148.031C131.039 147.561 130.449 141.797 131.244 142.609C132.039 143.422 132.433 146.569 132.433 146.569C132.794 146.586 133.156 146.557 133.51 146.483Z" fill="#1E7BF6"/>
<path id="Vector_68" d="M112.293 106.615L110.506 131.004C110.506 131.004 113.405 135.015 123.154 132.783L123.248 116.338" fill="#3E2928"/>
<path id="Vector_69" d="M123.59 111.447C123.376 113.55 123.59 136.717 123.59 136.717C123.59 136.717 126.284 141.762 138.026 136.717L137.863 117.048" fill="#3E2928"/>
<path id="Vector_70" d="M113.328 112.883C116.367 114.66 119.593 116.094 122.949 117.159H123.026C123.184 117.092 123.361 117.09 123.521 117.152C123.681 117.215 123.81 117.337 123.881 117.493C125.952 118.102 128.06 118.579 130.192 118.921C132.929 119.357 135.203 117.33 138.008 117.21C138.008 106.444 138.06 75.76 133.476 69.3205L119.921 64.7881C119.862 65.9084 113.337 73.4681 113.49 82.6784C113.587 90.8686 113.176 99.0569 112.259 107.196" fill="#3E2928"/>
<path id="Vector_71" d="M134.707 56.8264L133.459 69.1837C133.459 69.1837 123.334 69.5942 118.972 66.6182V56.0995" fill="#FF8F6F"/>
<path id="Vector_72" d="M147.603 48.6937L146.569 50.1047C147.119 48.9585 147.604 47.7822 148.022 46.5814C148.313 45.7262 146.996 45.4355 146.705 46.2479L146.551 46.6669C146.677 46.2337 146.794 45.7947 146.902 45.35C146.946 45.1753 146.919 44.9903 146.827 44.8355C146.735 44.6807 146.585 44.569 146.41 44.5247C146.236 44.4805 146.051 44.5075 145.896 44.5997C145.741 44.6919 145.629 44.8418 145.585 45.0165C145.3 46.1589 144.957 47.2863 144.559 48.3944C144.781 47.4106 144.941 46.4137 145.038 45.4098C145.123 44.5547 143.772 44.5547 143.687 45.4098C143.577 46.5646 143.374 47.7086 143.079 48.8305C143.079 48.4429 143.045 48.0552 142.977 47.6675C142.967 47.5709 142.937 47.4774 142.888 47.3934C142.84 47.3093 142.774 47.2366 142.695 47.18C142.695 47.0261 142.609 46.8807 142.558 46.7268C142.503 46.5785 142.399 46.4537 142.263 46.3735C142.127 46.2933 141.967 46.2627 141.811 46.2869C141.655 46.3111 141.512 46.3885 141.406 46.5061C141.301 46.6237 141.239 46.7742 141.232 46.932L141.147 52.0631C140.902 52.5906 140.582 53.0802 140.198 53.5169C140.852 53.9749 141.483 54.4659 142.087 54.9878C142.627 55.4524 143.141 55.9463 143.627 56.4673C144.06 55.9256 144.479 55.3726 144.884 54.8082C144.933 54.7656 144.976 54.7167 145.012 54.6628C146.227 52.8727 147.478 51.111 148.766 49.3778C149.297 48.6681 148.116 48.001 147.603 48.6937Z" fill="#FFB5A9"/>
<path id="Vector_73" d="M128.302 45.5638C128.302 45.5638 133.082 46.8551 135.024 49.9509C136.237 52.0802 137.305 54.2887 138.222 56.5614L141.754 51.0711C141.754 51.0711 146.03 52.3881 147.74 54.4918C147.74 54.4918 142.609 65.6091 138.222 66.5669C133.835 67.5247 129.089 59.9821 129.089 59.9821C129.089 59.9821 128.114 63.112 128.302 59.7683" fill="#FF8F6F"/>
<path id="Vector_74" d="M131.346 57.4422C129.964 56.3219 128.916 54.8425 128.319 53.1663C127.746 51.2165 128.464 49.4976 129.174 47.6761C129.897 45.8759 130.319 43.969 130.423 42.0319C130.483 40.1248 130.26 38.2264 130.132 36.3279C130.113 36.2463 130.113 36.1614 130.132 36.0799C129.499 33.9334 128.182 32.1204 125.6 31.9066C118.921 31.3422 118.544 38.748 118.596 41.7411C118.647 44.7342 118.963 46.7781 116.748 48.0438C114.534 49.3094 112.934 52.5933 115.038 55.2615C117.142 57.9296 115.252 56.9718 113.849 59.3235C112.447 61.6753 112.806 64.6513 115.697 65.7203C118.587 66.7892 132.03 64.7796 133.271 63.531C133.708 63.0314 133.935 62.3815 133.903 61.718C133.6 60.0289 132.691 58.5085 131.346 57.4422Z" fill="#007F68"/>
</g>
<defs>
<linearGradient id="paint0_linear_1_6940" x1="53.705" y1="129.183" x2="77.8552" y2="105.896" gradientUnits="userSpaceOnUse">
<stop stop-color="white" stop-opacity="0.03"/>
<stop offset="0.99" stop-color="#2A1700"/>
</linearGradient>
<linearGradient id="paint1_linear_1_6940" x1="9443" y1="6923.58" x2="10189.8" y2="5701.33" gradientUnits="userSpaceOnUse">
<stop stop-color="white" stop-opacity="0.03"/>
<stop offset="0.99" stop-color="#2A1700"/>
</linearGradient>
<linearGradient id="paint2_linear_1_6940" x1="15703.2" y1="7844.96" x2="16557.9" y2="6144.53" gradientUnits="userSpaceOnUse">
<stop stop-color="white" stop-opacity="0.03"/>
<stop offset="0.99" stop-color="#2A1700"/>
</linearGradient>
<linearGradient id="paint3_linear_1_6940" x1="5716.46" y1="7198.19" x2="6789.35" y2="5435.79" gradientUnits="userSpaceOnUse">
<stop stop-color="white" stop-opacity="0.03"/>
<stop offset="0.99" stop-color="#2A1700"/>
</linearGradient>
</defs>
</svg>
